<svg width="750" height="545" viewBox="0 0 750 545" fill="none" xmlns="http://www.w3.org/2000/svg">
<g filter="url(#filter0_df_1525_8126)">
<path fill-rule="evenodd" clip-rule="evenodd" d="M54.1757 304.292C21.7535 198.704 67.7154 46.1159 224.401 21.8414C327.557 5.85982 430.962 97.3744 512.851 162.112C610.17 239.047 720.862 236.185 686.717 355.449C645.388 499.805 455.474 532.949 299.964 515.083C165.714 499.66 93.8427 433.473 54.1757 304.292Z" fill="white"/>
</g>
<g clip-path="url(#clip0_1525_8126)">
<path d="M291.7 199.355C287.331 206.028 284.261 213.464 282.65 221.275L270.41 222.425V246.135L282.65 247.285C284.261 255.096 287.331 262.533 291.7 269.205L283.88 278.645L300.64 295.405L310.08 287.585C316.756 291.936 324.193 294.99 332 296.585L333.15 308.905H356.86L358 296.635C365.808 295.04 373.244 291.986 379.92 287.635L389.36 295.455L406.12 278.695L398.3 269.255C402.669 262.583 405.739 255.146 407.35 247.335L419.59 246.185V222.425L407.35 221.275C405.741 213.467 402.67 206.033 398.3 199.365L406.12 189.915L389.36 173.155L379.92 180.975C373.247 176.604 365.811 173.527 358 171.905L356.85 159.665H333.15L332 171.905C324.193 173.501 316.756 176.554 310.08 180.905L300.64 173.085L283.88 189.905L291.7 199.355ZM367.7 211.595C372.188 216.083 375.245 221.801 376.483 228.026C377.722 234.251 377.086 240.703 374.658 246.567C372.229 252.431 368.116 257.443 362.839 260.969C357.561 264.495 351.357 266.377 345.01 266.377C338.663 266.377 332.459 264.495 327.182 260.969C321.904 257.443 317.791 252.431 315.363 246.567C312.934 240.703 312.299 234.251 313.537 228.026C314.775 221.801 317.832 216.083 322.32 211.595C328.339 205.58 336.501 202.202 345.01 202.202C353.52 202.202 361.681 205.58 367.7 211.595Z" fill="#9B9B9B"/>
<path d="M183.55 157.905C181.095 161.663 179.368 165.849 178.46 170.245L171.58 170.895V184.235L178.46 184.885C179.37 189.278 181.097 193.46 183.55 197.215L179.16 202.535L188.59 211.965L193.9 207.565C197.656 210.025 201.843 211.752 206.24 212.655L206.89 219.545H220.23L220.88 212.655C225.274 211.75 229.457 210.023 233.21 207.565L238.52 211.965L247.96 202.535L243.56 197.215C246.015 193.468 247.742 189.292 248.65 184.905L255.54 184.255V170.905L248.65 170.255C247.743 165.856 246.017 161.666 243.56 157.905L248 152.605L238.56 143.175L233.25 147.575C229.498 145.115 225.314 143.384 220.92 142.475L220.27 135.595H206.89L206.24 142.485C201.841 143.385 197.654 145.112 193.9 147.575L188.59 143.175L179.16 152.605L183.55 157.905ZM226.33 164.795C228.856 167.321 230.576 170.539 231.273 174.042C231.97 177.546 231.612 181.177 230.245 184.477C228.879 187.777 226.564 190.598 223.594 192.582C220.624 194.567 217.132 195.626 213.56 195.626C209.988 195.626 206.496 194.567 203.526 192.582C200.556 190.598 198.242 187.777 196.875 184.477C195.508 181.177 195.15 177.546 195.847 174.042C196.544 170.539 198.264 167.321 200.79 164.795C204.178 161.41 208.773 159.509 213.562 159.511C218.352 159.513 222.945 161.417 226.33 164.805V164.795Z" fill="#9B9B9B"/>
<path d="M219.541 99.9052C218.311 101.793 217.449 103.897 217.001 106.105L213.561 106.435V113.105L217.001 113.425C217.454 115.623 218.315 117.716 219.541 119.595L217.341 122.245L222.061 126.965L224.721 124.765C226.596 125.992 228.686 126.854 230.881 127.305L231.201 130.745H237.871L238.201 127.305C240.395 126.852 242.485 125.99 244.361 124.765L247.021 126.965L251.731 122.245L249.531 119.595C250.763 117.718 251.628 115.625 252.081 113.425L255.521 113.105V106.435L252.081 106.105C251.633 103.895 250.768 101.791 249.531 99.9052L251.731 97.2452L247.001 92.5752L244.341 94.7752C242.465 93.547 240.375 92.682 238.181 92.2252L237.851 88.7852H231.201L230.881 92.2252C228.684 92.6757 226.593 93.5412 224.721 94.7752L222.061 92.5752L217.341 97.2852L219.541 99.9052ZM240.921 103.345C242.175 104.606 243.027 106.209 243.371 107.954C243.715 109.699 243.534 111.506 242.851 113.148C242.169 114.79 241.015 116.193 239.536 117.18C238.057 118.166 236.319 118.693 234.541 118.693C232.762 118.693 231.024 118.166 229.545 117.18C228.066 116.193 226.913 114.79 226.23 113.148C225.547 111.506 225.367 109.699 225.71 107.954C226.054 106.209 226.906 104.606 228.161 103.345C228.999 102.507 229.996 101.843 231.092 101.392C232.188 100.94 233.363 100.709 234.549 100.713C235.735 100.717 236.908 100.955 238.001 101.413C239.095 101.872 240.087 102.542 240.921 103.385V103.345Z" fill="#9B9B9B"/>
<path d="M152.942 231.925L109.917 240.389C108.015 240.764 106.776 242.609 107.15 244.511L118.412 301.754C118.786 303.656 120.631 304.894 122.533 304.52L165.559 296.055C167.461 295.681 168.699 293.836 168.325 291.934L157.063 234.691C156.689 232.789 154.844 231.551 152.942 231.925Z" fill="#D3D3D3"/>
<path d="M148.171 247.368L120.198 252.871C119.238 253.06 118.614 253.991 118.803 254.95L118.957 255.735C119.146 256.694 120.076 257.318 121.035 257.13L149.009 251.626C149.968 251.438 150.593 250.507 150.404 249.548L150.25 248.763C150.061 247.804 149.131 247.179 148.171 247.368Z" fill="#F0F0F0"/>
<path d="M150.306 258.27L122.332 263.773C121.373 263.962 120.749 264.893 120.937 265.852L121.092 266.637C121.281 267.596 122.211 268.22 123.17 268.032L151.144 262.528C152.103 262.34 152.728 261.409 152.539 260.45L152.385 259.665C152.196 258.706 151.265 258.081 150.306 258.27Z" fill="#F0F0F0"/>
<path d="M152.457 269.16L124.483 274.663C123.524 274.852 122.899 275.783 123.088 276.742L123.242 277.527C123.431 278.486 124.361 279.111 125.321 278.922L153.294 273.418C154.254 273.23 154.878 272.299 154.689 271.34L154.535 270.555C154.346 269.596 153.416 268.971 152.457 269.16Z" fill="#F0F0F0"/>
<path d="M139.726 282.984L126.627 285.561C125.668 285.75 125.044 286.68 125.232 287.639L125.387 288.424C125.575 289.383 126.506 290.008 127.465 289.819L140.564 287.242C141.523 287.053 142.148 286.123 141.959 285.164L141.805 284.379C141.616 283.42 140.685 282.795 139.726 282.984Z" fill="#F0F0F0"/>
<path d="M212.692 309.719L185.456 306.466C183.531 306.236 181.784 307.61 181.554 309.535L177.139 346.512C176.909 348.437 178.283 350.184 180.208 350.414L207.444 353.666C209.369 353.896 211.116 352.522 211.346 350.597L215.761 313.62C215.991 311.695 214.617 309.948 212.692 309.719Z" fill="#D3D3D3"/>
<path d="M206.9 321.685L188.27 319.465C187.885 319.418 187.534 319.22 187.294 318.914C187.055 318.609 186.945 318.221 186.99 317.835C187.036 317.448 187.233 317.095 187.538 316.853C187.844 316.611 188.233 316.5 188.62 316.545L207.25 318.775C207.442 318.796 207.628 318.855 207.797 318.949C207.966 319.043 208.114 319.169 208.233 319.321C208.352 319.473 208.44 319.647 208.491 319.833C208.542 320.019 208.556 320.214 208.53 320.405C208.509 320.597 208.45 320.783 208.357 320.952C208.263 321.12 208.136 321.269 207.985 321.388C207.833 321.507 207.659 321.595 207.473 321.646C207.286 321.697 207.092 321.71 206.9 321.685Z" fill="#F0F0F0"/>
<path d="M205.999 329.155L187.379 326.905C187.187 326.882 187.002 326.821 186.834 326.725C186.666 326.63 186.518 326.503 186.399 326.351C186.28 326.198 186.192 326.024 186.141 325.838C186.09 325.652 186.075 325.457 186.099 325.265C186.121 325.074 186.181 324.889 186.275 324.721C186.37 324.553 186.496 324.405 186.648 324.286C186.799 324.167 186.973 324.079 187.158 324.027C187.344 323.976 187.538 323.962 187.729 323.985L206.359 326.205C206.744 326.253 207.095 326.451 207.335 326.756C207.575 327.062 207.684 327.45 207.639 327.835C207.622 328.031 207.565 328.221 207.473 328.395C207.38 328.568 207.253 328.721 207.1 328.844C206.947 328.968 206.771 329.059 206.581 329.112C206.392 329.166 206.194 329.18 205.999 329.155Z" fill="#F0F0F0"/>
<path d="M205.12 336.625L186.49 334.395C186.299 334.373 186.114 334.313 185.946 334.219C185.778 334.125 185.63 333.998 185.511 333.847C185.392 333.695 185.304 333.522 185.253 333.336C185.201 333.15 185.187 332.956 185.21 332.765C185.255 332.378 185.453 332.025 185.758 331.783C186.064 331.541 186.453 331.43 186.84 331.475L205.47 333.705C205.662 333.728 205.847 333.788 206.015 333.882C206.183 333.976 206.331 334.102 206.45 334.254C206.569 334.405 206.657 334.579 206.708 334.764C206.76 334.95 206.774 335.144 206.75 335.335C206.705 335.722 206.508 336.076 206.202 336.318C205.897 336.56 205.508 336.67 205.12 336.625Z" fill="#F0F0F0"/>
<path d="M193.999 342.905L185.569 341.905C185.181 341.858 184.828 341.659 184.586 341.351C184.345 341.044 184.234 340.654 184.279 340.265C184.292 340.059 184.348 339.857 184.444 339.673C184.539 339.49 184.673 339.329 184.835 339.2C184.997 339.072 185.185 338.979 185.386 338.928C185.586 338.878 185.796 338.87 185.999 338.905L194.429 339.905C194.817 339.95 195.17 340.148 195.412 340.453C195.654 340.759 195.765 341.148 195.719 341.535C195.708 341.743 195.653 341.946 195.558 342.13C195.463 342.315 195.33 342.477 195.167 342.607C195.005 342.736 194.817 342.83 194.615 342.881C194.414 342.933 194.204 342.941 193.999 342.905Z" fill="#F0F0F0"/>
<path d="M676.991 189.073L644.791 176.855C642.979 176.167 640.952 177.079 640.264 178.891L623.856 222.133C623.168 223.945 624.08 225.972 625.892 226.659L658.092 238.878C659.904 239.566 661.931 238.654 662.619 236.842L679.028 193.6C679.715 191.788 678.804 189.761 676.991 189.073Z" fill="#D3D3D3"/>
<path d="M667.617 197.926L645.945 189.702C645.186 189.414 644.337 189.796 644.049 190.555L643.836 191.116C643.548 191.875 643.93 192.724 644.689 193.012L666.361 201.236C667.12 201.524 667.969 201.142 668.257 200.383L668.47 199.822C668.758 199.063 668.376 198.214 667.617 197.926Z" fill="#F0F0F0"/>
<path d="M664.404 206.387L642.732 198.163C641.973 197.875 641.124 198.257 640.836 199.016L640.623 199.577C640.335 200.336 640.717 201.184 641.476 201.472L663.148 209.696C663.907 209.984 664.756 209.603 665.044 208.843L665.257 208.283C665.545 207.523 665.163 206.675 664.404 206.387Z" fill="#F0F0F0"/>
<path d="M661.201 214.847L639.529 206.624C638.77 206.336 637.921 206.717 637.633 207.476L637.42 208.037C637.132 208.796 637.514 209.645 638.273 209.933L659.945 218.157C660.704 218.445 661.553 218.063 661.841 217.304L662.054 216.743C662.342 215.984 661.96 215.135 661.201 214.847Z" fill="#F0F0F0"/>
<path d="M646.424 218.928L636.308 215.089C635.549 214.801 634.7 215.183 634.412 215.942L634.199 216.503C633.911 217.262 634.293 218.11 635.052 218.399L645.168 222.237C645.927 222.525 646.776 222.143 647.064 221.384L647.277 220.823C647.565 220.064 647.183 219.216 646.424 218.928Z" fill="#F0F0F0"/>
<path d="M397.749 81.0753H387.599C386.732 81.0753 386.029 81.7782 386.029 82.6453V95.2253C386.029 96.0923 386.732 96.7953 387.599 96.7953H397.749C398.616 96.7953 399.319 96.0923 399.319 95.2253V82.6453C399.319 81.7782 398.616 81.0753 397.749 81.0753Z" fill="#9B9B9B"/>
<path d="M417.74 68.8452H407.59C406.722 68.8452 406.02 69.5482 406.02 70.4152V95.2252C406.02 96.0923 406.722 96.7952 407.59 96.7952H417.74C418.607 96.7952 419.31 96.0923 419.31 95.2252V70.4152C419.31 69.5482 418.607 68.8452 417.74 68.8452Z" fill="#9B9B9B"/>
<path d="M439.249 56.7653H429.099C428.232 56.7653 427.529 57.4682 427.529 58.3353V95.5753C427.529 96.4423 428.232 97.1453 429.099 97.1453H439.249C440.116 97.1453 440.819 96.4423 440.819 95.5753V58.3353C440.819 57.4682 440.116 56.7653 439.249 56.7653Z" fill="#9B9B9B"/>
<path d="M476.6 288.125C474.231 291.737 472.569 295.764 471.7 299.995L465.07 300.615V313.455L471.7 314.075C472.575 318.292 474.238 322.305 476.6 325.905L472.36 331.015L481.44 340.095L486.55 335.865C490.164 338.228 494.191 339.887 498.42 340.755L499.05 347.385H511.88L512.51 340.765C516.739 339.889 520.765 338.227 524.38 335.865L529.49 340.095L538.57 331.015L534.34 325.905C536.705 322.292 538.364 318.265 539.23 314.035L545.86 313.415V300.615L539.23 299.995C538.366 295.763 536.703 291.735 534.33 288.125L538.57 283.005L529.49 273.905L524.38 278.135C520.767 275.77 516.74 274.107 512.51 273.235L511.88 266.605H499.05L498.42 273.235C494.194 274.11 490.171 275.772 486.56 278.135L481.44 273.905L472.36 282.975L476.6 288.125ZM517.75 294.745C520.182 297.175 521.839 300.272 522.51 303.644C523.182 307.016 522.839 310.511 521.524 313.687C520.208 316.864 517.981 319.579 515.122 321.489C512.264 323.4 508.903 324.419 505.465 324.419C502.027 324.419 498.667 323.4 495.808 321.489C492.95 319.579 490.722 316.864 489.407 313.687C488.092 310.511 487.749 307.016 488.42 303.644C489.092 300.272 490.748 297.175 493.18 294.745C496.439 291.489 500.858 289.659 505.465 289.659C510.073 289.659 514.491 291.489 517.75 294.745Z" fill="#9B9B9B"/>
<path d="M556.071 318.505C554.953 320.209 554.17 322.109 553.761 324.105L550.631 324.395V330.455L553.761 330.745C554.17 332.741 554.953 334.642 556.071 336.345L554.071 338.765L558.351 343.045L560.771 341.045C562.475 342.163 564.375 342.947 566.371 343.355L566.661 346.485H572.721L573.011 343.355C575.007 342.947 576.907 342.163 578.611 341.045L581.031 343.045L585.311 338.765L583.311 336.345C584.432 334.644 585.216 332.743 585.621 330.745L588.751 330.455V324.395L585.621 324.105C585.216 322.108 584.432 320.207 583.311 318.505L585.311 316.085L581.001 311.805L578.581 313.805C576.879 312.684 574.978 311.9 572.981 311.495L572.691 308.365H566.631L566.341 311.495C564.344 311.9 562.442 312.684 560.741 313.805L558.321 311.805L554.041 316.085L556.071 318.505ZM575.491 321.625C576.637 322.772 577.418 324.233 577.734 325.824C578.05 327.414 577.887 329.063 577.266 330.561C576.645 332.059 575.594 333.339 574.246 334.24C572.898 335.141 571.312 335.622 569.691 335.622C568.069 335.622 566.484 335.141 565.136 334.24C563.787 333.339 562.736 332.059 562.116 330.561C561.495 329.063 561.332 327.414 561.648 325.824C561.964 324.233 562.745 322.772 563.891 321.625C565.43 320.089 567.516 319.226 569.691 319.226C571.866 319.226 573.952 320.089 575.491 321.625Z" fill="#9B9B9B"/>
<path d="M502.21 226.325C501.096 228.031 500.312 229.93 499.9 231.925L496.77 232.225V238.275L499.9 238.575C500.31 240.571 501.094 242.471 502.21 244.175L500.21 246.585L504.49 250.875L506.91 248.875C508.613 249.993 510.514 250.777 512.51 251.185L512.8 254.315H518.86L519.15 251.185C521.146 250.777 523.046 249.993 524.75 248.875L527.17 250.875L531.45 246.585L529.45 244.175C530.569 242.473 531.353 240.572 531.76 238.575L534.89 238.275V232.225L531.76 231.925C531.352 229.929 530.568 228.029 529.45 226.325L531.45 223.915L527.17 219.635L524.75 221.635C523.044 220.522 521.144 219.739 519.15 219.325L518.86 216.205H512.8L512.51 219.325C510.515 219.739 508.615 220.522 506.91 221.635L504.49 219.635L500.21 223.905L502.21 226.325ZM521.63 229.455C522.776 230.602 523.556 232.063 523.872 233.654C524.188 235.244 524.026 236.893 523.405 238.391C522.784 239.889 521.733 241.169 520.385 242.07C519.036 242.971 517.451 243.452 515.83 243.452C514.208 243.452 512.623 242.971 511.274 242.07C509.926 241.169 508.875 239.889 508.254 238.391C507.633 236.893 507.471 235.244 507.787 233.654C508.103 232.063 508.883 230.602 510.03 229.455C510.791 228.693 511.695 228.089 512.69 227.676C513.686 227.264 514.752 227.052 515.83 227.052C516.907 227.052 517.973 227.264 518.969 227.676C519.964 228.089 520.868 228.693 521.63 229.455Z" fill="#BABABA"/>
<path d="M551.601 248.565C549.501 251.762 548.029 255.329 547.261 259.075L541.391 259.635V271.005L547.271 271.555C548.039 275.305 549.511 278.875 551.611 282.075L547.861 286.605L555.861 294.605L560.391 290.855C563.592 292.946 567.157 294.418 570.901 295.195L571.461 301.065H582.831L583.381 295.195C587.134 294.437 590.713 292.982 593.931 290.905L598.461 294.655L606.461 286.655L602.711 282.125C604.802 278.92 606.274 275.352 607.051 271.605L612.921 271.055V259.635L607.051 259.075C606.273 255.331 604.801 251.767 602.711 248.565L606.461 244.035L598.461 236.035L593.931 239.785C590.73 237.686 587.16 236.213 583.411 235.445L582.861 229.575H571.491L570.931 235.445C567.184 236.213 563.618 237.686 560.421 239.785L555.891 236.035L547.891 244.035L551.601 248.565ZM588.061 254.435C590.212 256.588 591.677 259.33 592.27 262.315C592.864 265.3 592.558 268.395 591.393 271.206C590.228 274.018 588.256 276.421 585.725 278.112C583.194 279.803 580.219 280.705 577.176 280.705C574.132 280.705 571.157 279.803 568.626 278.112C566.095 276.421 564.123 274.018 562.958 271.206C561.793 268.395 561.488 265.3 562.081 262.315C562.674 259.33 564.139 256.588 566.291 254.435C569.178 251.55 573.093 249.929 577.176 249.929C581.258 249.929 585.173 251.55 588.061 254.435Z" fill="#BABABA"/>
<path d="M146.27 89.9553C144.44 92.753 143.154 95.8708 142.48 99.1453L137.35 99.6253V109.565L142.48 110.045C143.154 113.32 144.44 116.438 146.27 119.235L142.99 123.235L149.99 130.235L154 126.905C156.793 128.737 159.908 130.023 163.18 130.695L163.67 135.825H173.6L174.08 130.695C177.348 130.021 180.459 128.735 183.25 126.905L187.25 130.185L194.25 123.185L190.97 119.185C192.803 116.388 194.092 113.27 194.77 109.995L199.89 109.515V99.6253L194.76 99.1453C194.082 95.8703 192.793 92.7525 190.96 89.9553L194.24 86.0053L187.24 79.0053L183.24 82.2853C180.443 80.4535 177.325 79.1676 174.05 78.4953L173.57 73.3653H163.64L163.15 78.4953C159.89 79.162 156.786 80.4377 154 82.2553L150 78.9753L143 85.9753L146.27 89.9553ZM178.12 95.0853C180.004 96.9651 181.288 99.3616 181.809 101.971C182.33 104.581 182.066 107.287 181.049 109.747C180.032 112.206 178.308 114.308 176.095 115.788C173.883 117.267 171.281 118.056 168.62 118.056C165.958 118.056 163.357 117.267 161.144 115.788C158.932 114.308 157.208 112.206 156.191 109.747C155.173 107.287 154.909 104.581 155.43 101.971C155.952 99.3616 157.236 96.9651 159.12 95.0853C161.641 92.5694 165.058 91.1564 168.62 91.1564C172.182 91.1564 175.598 92.5694 178.12 95.0853Z" fill="#BABABA"/>
<path d="M509.669 425.915H495.039V426.335H509.669V425.915Z" fill="#E4E4E4"/>
<path d="M138.961 408.555H128.301V408.975H138.961V408.555Z" fill="#E4E4E4"/>
<path d="M331.2 415.655H173.59V416.075H331.2V415.655Z" fill="#E4E4E4"/>
<path d="M180.55 140.635H75.3595C73.1007 140.635 71.2695 142.466 71.2695 144.725V203.825C71.2695 206.084 73.1007 207.915 75.3595 207.915H180.55C182.808 207.915 184.64 206.084 184.64 203.825V144.725C184.64 142.466 182.808 140.635 180.55 140.635Z" fill="#2972FF"/>
<path opacity="0.8" d="M180.55 140.635H75.3595C73.1007 140.635 71.2695 142.466 71.2695 144.725V203.825C71.2695 206.084 73.1007 207.915 75.3595 207.915H180.55C182.808 207.915 184.64 206.084 184.64 203.825V144.725C184.64 142.466 182.808 140.635 180.55 140.635Z" fill="white"/>
<path d="M88.3086 178.005C88.7986 177.565 102.069 164.465 102.069 164.465L115.159 170.905L127.999 155.905L140.999 174.715L153.759 166.385" stroke="#263238" stroke-width="0.5" stroke-miterlimit="10"/>
<path d="M92.4193 183.905H86.2793V197.495H92.4193V183.905Z" fill="#2972FF"/>
<path d="M105.05 174.925H98.9102V197.505H105.05V174.925Z" fill="#2972FF"/>
<path d="M117.919 177.195H111.779V197.505H117.919V177.195Z" fill="#2972FF"/>
<path d="M131.029 164.465H124.889V197.505H131.029V164.465Z" fill="#2972FF"/>
<path d="M144.269 181.985H138.129V197.505H144.269V181.985Z" fill="#2972FF"/>
<path d="M92.6391 176.465C92.641 177.118 92.4492 177.757 92.0878 178.301C91.7264 178.845 91.2117 179.27 90.6089 179.521C90.006 179.772 89.3422 179.839 88.7014 179.713C88.0606 179.587 87.4717 179.273 87.0092 178.812C86.5466 178.351 86.2314 177.763 86.1032 177.123C85.9751 176.482 86.0398 175.818 86.2893 175.215C86.5388 174.611 86.9617 174.095 87.5046 173.732C88.0475 173.369 88.6859 173.175 89.339 173.175C90.2125 173.175 91.0504 173.522 91.669 174.138C92.2876 174.755 92.6364 175.592 92.6391 176.465Z" fill="#2972FF"/>
<path d="M105.27 164.465C105.27 165.118 105.076 165.757 104.713 166.3C104.35 166.843 103.834 167.266 103.23 167.515C102.627 167.764 101.963 167.829 101.322 167.701C100.682 167.573 100.094 167.258 99.6329 166.795C99.1718 166.333 98.8583 165.744 98.7321 165.103C98.6059 164.462 98.6727 163.798 98.924 163.195C99.1753 162.593 99.5998 162.078 100.144 161.717C100.688 161.355 101.327 161.163 101.98 161.165C102.413 161.165 102.841 161.251 103.241 161.417C103.641 161.583 104.004 161.826 104.31 162.132C104.615 162.439 104.858 162.803 105.022 163.203C105.187 163.603 105.271 164.032 105.27 164.465Z" fill="#2972FF"/>
<path d="M118.459 169.905C118.459 170.558 118.266 171.196 117.903 171.739C117.541 172.281 117.025 172.704 116.422 172.954C115.819 173.204 115.156 173.269 114.516 173.142C113.875 173.014 113.287 172.7 112.826 172.239C112.364 171.777 112.05 171.189 111.923 170.549C111.795 169.909 111.861 169.245 112.111 168.642C112.36 168.039 112.783 167.524 113.326 167.161C113.869 166.799 114.507 166.605 115.159 166.605C116.035 166.605 116.874 166.953 117.493 167.572C118.112 168.191 118.459 169.03 118.459 169.905Z" fill="#2972FF"/>
<path d="M131.25 155.905C131.25 156.558 131.057 157.196 130.694 157.739C130.332 158.281 129.816 158.704 129.213 158.954C128.61 159.204 127.947 159.269 127.307 159.142C126.666 159.015 126.078 158.7 125.617 158.239C125.155 157.777 124.841 157.189 124.714 156.549C124.586 155.909 124.652 155.245 124.902 154.642C125.151 154.039 125.574 153.524 126.117 153.161C126.66 152.799 127.298 152.605 127.95 152.605C128.384 152.604 128.814 152.688 129.215 152.854C129.616 153.019 129.98 153.262 130.287 153.569C130.593 153.876 130.837 154.24 131.002 154.641C131.167 155.042 131.252 155.472 131.25 155.905Z" fill="#2972FF"/>
<path d="M144.34 174.715C144.34 175.368 144.147 176.006 143.784 176.549C143.421 177.091 142.906 177.514 142.303 177.764C141.7 178.014 141.037 178.079 140.396 177.952C139.756 177.824 139.168 177.51 138.707 177.049C138.245 176.587 137.931 175.999 137.804 175.359C137.676 174.719 137.742 174.055 137.991 173.452C138.241 172.849 138.664 172.334 139.207 171.971C139.75 171.609 140.388 171.415 141.04 171.415C141.474 171.414 141.904 171.498 142.305 171.664C142.706 171.829 143.07 172.072 143.377 172.379C143.683 172.686 143.926 173.05 144.092 173.451C144.257 173.852 144.342 174.282 144.34 174.715Z" fill="#2972FF"/>
<path d="M157.38 174.195H151.24V197.495H157.38V174.195Z" fill="#2972FF"/>
<path opacity="0.3" d="M105.05 174.925H98.9102V197.505H105.05V174.925Z" fill="black"/>
<path opacity="0.3" d="M131.029 164.465H124.889V197.505H131.029V164.465Z" fill="black"/>
<path opacity="0.3" d="M157.38 174.195H151.24V197.495H157.38V174.195Z" fill="black"/>
<path d="M170.96 181.985H164.82V197.505H170.96V181.985Z" fill="#2972FF"/>
<path d="M153.799 166.385L167.879 174.195" stroke="#263238" stroke-width="0.5" stroke-miterlimit="10"/>
<path d="M157.83 166.385C157.83 167.038 157.637 167.677 157.274 168.22C156.911 168.763 156.395 169.185 155.791 169.435C155.187 169.684 154.523 169.749 153.883 169.621C153.243 169.493 152.655 169.178 152.193 168.715C151.732 168.253 151.419 167.664 151.293 167.023C151.166 166.382 151.233 165.718 151.485 165.115C151.736 164.513 152.16 163.998 152.704 163.637C153.248 163.275 153.887 163.083 154.54 163.085C154.973 163.085 155.402 163.171 155.802 163.337C156.202 163.503 156.565 163.746 156.87 164.052C157.176 164.359 157.418 164.723 157.583 165.123C157.748 165.523 157.832 165.952 157.83 166.385Z" fill="#2972FF"/>
<path d="M167.88 177.495C169.703 177.495 171.18 176.018 171.18 174.195C171.18 172.373 169.703 170.895 167.88 170.895C166.058 170.895 164.58 172.373 164.58 174.195C164.58 176.018 166.058 177.495 167.88 177.495Z" fill="#2972FF"/>
<path d="M651.67 435.595C683.2 435.595 708.76 410.035 708.76 378.505C708.76 346.975 683.2 321.415 651.67 321.415C620.14 321.415 594.58 346.975 594.58 378.505C594.58 410.035 620.14 435.595 651.67 435.595Z" fill="white" stroke="#263238" stroke-miterlimit="10"/>
<path d="M680.33 368.085H623.83V407.985H680.33V368.085Z" fill="#2972FF"/>
<path opacity="0.3" d="M650.59 368.085H623.83V407.985H650.59V368.085Z" fill="black"/>
<path d="M623.831 368.085L614.631 383.535H641.201L650.591 368.085H623.831Z" fill="#2972FF"/>
<path d="M650.59 368.085L660.47 383.535H688.71L680.33 368.085H650.59Z" fill="#2972FF"/>
<path opacity="0.3" d="M650.59 368.085L660.47 383.535H688.71L680.33 368.085H650.59Z" fill="black"/>
<path d="M642.049 358.425L635.179 348.785C634.899 348.395 634.249 348.785 634.529 349.165L641.399 358.805C641.679 359.195 642.329 358.805 642.049 358.425Z" fill="#263238"/>
<path d="M651.459 358.155L651.189 342.425C651.175 342.336 651.129 342.255 651.06 342.197C650.992 342.139 650.905 342.107 650.814 342.107C650.724 342.107 650.637 342.139 650.568 342.197C650.5 342.255 650.454 342.336 650.439 342.425L650.709 358.155C650.724 358.244 650.77 358.325 650.838 358.383C650.907 358.442 650.994 358.474 651.084 358.474C651.175 358.474 651.262 358.442 651.33 358.383C651.399 358.325 651.445 358.244 651.459 358.155Z" fill="#263238"/>
<path d="M660.881 358.475C662.561 355.482 664.227 352.482 665.881 349.475C666.111 349.055 665.471 348.675 665.231 349.095L660.231 358.095C660.001 358.515 660.641 358.895 660.881 358.475Z" fill="#263238"/>
<path d="M666.92 346.965L666.86 346.905C666.825 346.872 666.784 346.845 666.74 346.825C666.691 346.816 666.64 346.816 666.59 346.825C666.544 346.815 666.496 346.815 666.45 346.825C666.403 346.84 666.361 346.867 666.33 346.905L666.27 346.985C666.251 347.044 666.251 347.107 666.27 347.165V347.265C666.288 347.33 666.322 347.389 666.37 347.435L666.43 347.495C666.461 347.533 666.503 347.561 666.55 347.575C666.596 347.585 666.644 347.585 666.69 347.575C666.74 347.585 666.791 347.585 666.84 347.575C666.887 347.561 666.929 347.533 666.96 347.495L667.02 347.425C667.035 347.363 667.035 347.298 667.02 347.235V347.135C667.003 347.071 666.968 347.012 666.92 346.965Z" fill="#263238"/>
<path d="M542.781 200.905L554.001 253.745C554.093 254.281 554.038 254.832 553.842 255.339C553.646 255.846 553.315 256.291 552.886 256.624C552.456 256.958 551.944 257.169 551.405 257.234C550.865 257.3 550.317 257.217 549.821 256.995L510.651 237.715C510.248 237.522 509.895 237.241 509.618 236.891C509.34 236.542 509.146 236.134 509.05 235.699C508.954 235.263 508.958 234.811 509.062 234.378C509.166 233.944 509.367 233.54 509.651 233.195L537.601 199.665C537.96 199.25 538.427 198.941 538.95 198.772C539.474 198.604 540.033 198.583 540.567 198.711C541.102 198.839 541.591 199.111 541.981 199.498C542.372 199.885 542.648 200.372 542.781 200.905Z" fill="#2972FF"/>
<path d="M545.221 244.845L540.871 214.675C552.282 213.046 562.93 207.99 571.405 200.178C579.881 192.366 585.786 182.165 588.339 170.924C590.891 159.683 589.971 147.932 585.701 137.225C581.43 126.519 574.01 117.361 564.422 110.962C554.834 104.564 543.529 101.227 532.003 101.393C520.477 101.559 509.273 105.219 499.873 111.891C490.473 118.562 483.319 127.93 479.358 138.755C475.398 149.58 474.816 161.353 477.691 172.515L448.171 180.145C443.752 163.008 444.639 144.934 450.715 128.312C456.79 111.69 467.768 97.3042 482.197 87.0563C496.625 76.8085 513.825 71.1817 531.52 70.9201C549.215 70.6584 566.574 75.7742 581.299 85.591C596.024 95.4077 607.422 109.463 613.987 125.898C620.551 142.333 621.972 160.373 618.062 177.633C614.152 194.893 605.095 210.56 592.088 222.561C579.082 234.562 562.739 242.333 545.221 244.845Z" fill="#2972FF"/>
<g opacity="0.2">
<path d="M542.781 200.905L554.001 253.745C554.093 254.281 554.038 254.832 553.842 255.339C553.646 255.846 553.315 256.291 552.886 256.624C552.456 256.958 551.944 257.169 551.405 257.234C550.865 257.3 550.317 257.217 549.821 256.995L510.651 237.715C510.248 237.522 509.895 237.241 509.618 236.891C509.34 236.542 509.146 236.134 509.05 235.699C508.954 235.263 508.958 234.811 509.062 234.378C509.166 233.944 509.367 233.54 509.651 233.195L537.601 199.665C537.96 199.25 538.427 198.941 538.95 198.772C539.474 198.604 540.033 198.583 540.567 198.711C541.102 198.839 541.591 199.111 541.981 199.498C542.372 199.885 542.648 200.372 542.781 200.905Z" fill="black"/>
<path d="M545.221 244.845L540.871 214.675C552.282 213.046 562.93 207.99 571.405 200.178C579.881 192.366 585.786 182.165 588.339 170.924C590.891 159.683 589.971 147.932 585.701 137.225C581.43 126.519 574.01 117.361 564.422 110.962C554.834 104.564 543.529 101.227 532.003 101.393C520.477 101.559 509.273 105.219 499.873 111.891C490.473 118.562 483.319 127.93 479.358 138.755C475.398 149.58 474.816 161.353 477.691 172.515L448.171 180.145C443.752 163.008 444.639 144.934 450.715 128.312C456.79 111.69 467.768 97.3042 482.197 87.0563C496.625 76.8085 513.825 71.1817 531.52 70.9201C549.215 70.6584 566.574 75.7742 581.299 85.591C596.024 95.4077 607.422 109.463 613.987 125.898C620.551 142.333 621.972 160.373 618.062 177.633C614.152 194.893 605.095 210.56 592.088 222.561C579.082 234.562 562.739 242.333 545.221 244.845Z" fill="black"/>
</g>
<path d="M546.159 187.461C564.946 182.191 575.903 162.689 570.633 143.902C565.363 125.115 545.861 114.157 527.074 119.427C508.287 124.698 497.329 144.2 502.599 162.987C507.869 181.774 527.372 192.731 546.159 187.461Z" fill="#2972FF"/>
<path opacity="0.3" d="M546.159 187.461C564.946 182.191 575.903 162.689 570.633 143.902C565.363 125.115 545.861 114.157 527.074 119.427C508.287 124.698 497.329 144.2 502.599 162.987C507.869 181.774 527.372 192.731 546.159 187.461Z" fill="black"/>
<path d="M556.752 179.163C572.02 167.014 574.548 144.787 562.399 129.519C550.25 114.251 528.023 111.722 512.755 123.872C497.487 136.021 494.958 158.247 507.108 173.516C519.257 188.784 541.483 191.312 556.752 179.163Z" fill="#2972FF"/>
<path d="M559.96 166.624C568.286 152.716 563.762 134.692 549.855 126.365C535.947 118.039 517.923 122.563 509.596 136.47C501.27 150.378 505.794 168.402 519.701 176.729C533.609 185.055 551.633 180.531 559.96 166.624Z" fill="white"/>
<path d="M520.661 172.345L524.561 166.565L524.911 166.795L521.151 172.665L520.661 172.345ZM512.881 163.905C512.781 163.745 512.691 163.565 512.601 163.395L518.741 160.115L518.941 160.475L512.881 163.905ZM532.001 176.505L532.771 169.585H533.201L532.561 176.525L532.001 176.505ZM509.621 152.345C509.621 152.145 509.621 151.955 509.621 151.765L516.621 151.695V152.115L509.621 152.345ZM543.881 174.905L541.341 168.415L541.731 168.255L544.511 174.645L544.351 174.715L543.881 174.905ZM512.111 140.575C512.201 140.405 512.281 140.235 512.371 140.055L518.581 143.225C518.511 143.345 518.451 143.475 518.391 143.595L512.111 140.575ZM548.511 163.395L548.761 163.095L554.141 167.525C554.021 167.685 553.891 167.835 553.761 167.985L548.511 163.395ZM523.931 136.905L519.791 131.295L520.251 130.965L524.251 136.645L523.931 136.905ZM552.451 155.655L552.541 155.235L559.361 156.695C559.361 156.875 559.271 157.065 559.231 157.255L552.451 155.655ZM532.001 133.555L530.931 126.665L531.481 126.585L532.431 133.485L532.001 133.555ZM552.391 146.965C552.391 146.835 552.321 146.705 552.281 146.575L558.981 144.665C559.041 144.855 559.091 145.045 559.141 145.235L552.391 146.965ZM540.621 134.315L542.871 127.715L543.441 127.925L541.001 134.455L540.621 134.315ZM548.231 139.315L547.941 139.005L553.001 134.215L553.401 134.635L548.231 139.315Z" fill="black"/>
<path d="M527.361 140.605L534.371 152.655L545.711 141.625" stroke="black" stroke-linecap="round" stroke-linejoin="round"/>
<path d="M536.41 153.205C536.124 153.531 535.748 153.764 535.33 153.876C534.911 153.988 534.469 153.973 534.059 153.834C533.649 153.694 533.289 153.436 533.026 153.092C532.762 152.748 532.607 152.334 532.579 151.902C532.551 151.469 532.652 151.039 532.869 150.664C533.086 150.289 533.409 149.987 533.797 149.795C534.186 149.604 534.623 149.532 535.052 149.589C535.482 149.646 535.885 149.829 536.21 150.115C536.646 150.499 536.912 151.039 536.95 151.619C536.987 152.198 536.793 152.769 536.41 153.205Z" fill="black"/>
<path opacity="0.3" d="M515.16 132.625C518.625 129.261 522.868 126.804 527.511 125.472C532.154 124.141 537.054 123.976 541.776 124.993C546.497 126.01 550.895 128.177 554.578 131.302C558.262 134.427 561.117 138.412 562.89 142.905C561.761 139.1 559.872 135.564 557.337 132.51C554.802 129.456 551.674 126.948 548.142 125.137C544.611 123.326 540.748 122.251 536.789 121.975C532.829 121.7 528.855 122.23 525.107 123.535C521.358 124.839 517.913 126.89 514.98 129.564C512.047 132.238 509.687 135.478 508.042 139.09C506.397 142.702 505.502 146.61 505.41 150.578C505.319 154.546 506.033 158.491 507.51 162.175C505.952 157.022 505.842 151.539 507.191 146.328C508.54 141.116 511.297 136.375 515.16 132.625Z" fill="black"/>
<path d="M240.24 361.215C222.592 341.626 210.276 317.829 204.474 292.109C198.673 266.389 199.581 239.609 207.112 214.341C214.643 189.073 228.543 166.165 247.478 147.817C266.413 129.469 289.747 116.297 315.24 109.565L303.9 123.785L323.76 141.905C303.822 147.176 285.574 157.483 270.766 171.837C255.959 186.19 245.089 204.109 239.2 223.873C233.312 243.638 232.602 264.584 237.139 284.701C241.676 304.818 251.308 323.432 265.11 338.755L240.24 361.215Z" fill="#2972FF"/>
<path d="M243.55 363.135C244.79 362.825 285.77 363.135 285.77 363.135L265.11 338.795L240.24 361.215L243.55 363.135Z" fill="#2972FF"/>
<g opacity="0.3">
<path d="M240.24 361.215C222.592 341.626 210.276 317.829 204.474 292.109C198.673 266.389 199.581 239.609 207.112 214.341C214.643 189.073 228.543 166.165 247.478 147.817C266.413 129.469 289.747 116.297 315.24 109.565L303.9 123.785L323.76 141.905C303.822 147.176 285.574 157.483 270.766 171.837C255.959 186.19 245.089 204.109 239.2 223.873C233.312 243.638 232.602 264.584 237.139 284.701C241.676 304.818 251.308 323.432 265.11 338.755L240.24 361.215Z" fill="black"/>
<path d="M243.55 363.135C244.79 362.825 285.77 363.135 285.77 363.135L265.11 338.795L240.24 361.215L243.55 363.135Z" fill="black"/>
</g>
<path d="M546.131 417.615V363.615C546.151 363.071 546.319 362.542 546.617 362.086C546.915 361.63 547.331 361.263 547.821 361.026C548.312 360.788 548.857 360.689 549.4 360.738C549.942 360.787 550.461 360.983 550.901 361.305L585.201 388.305C585.552 388.579 585.836 388.93 586.031 389.33C586.227 389.73 586.328 390.17 586.328 390.615C586.328 391.061 586.227 391.5 586.031 391.9C585.836 392.301 585.552 392.651 585.201 392.925L550.901 419.925C550.461 420.247 549.942 420.443 549.4 420.492C548.857 420.541 548.312 420.442 547.821 420.205C547.331 419.967 546.915 419.601 546.617 419.144C546.319 418.688 546.151 418.16 546.131 417.615Z" fill="#2972FF"/>
<path d="M551.7 374.575H361.01V406.665H551.7V374.575Z" fill="#2972FF"/>
<path opacity="0.3" d="M584.901 388.315L550.601 361.315C550.167 360.971 549.645 360.755 549.095 360.694C548.544 360.633 547.988 360.729 547.489 360.97C546.991 361.212 546.571 361.589 546.277 362.059C545.984 362.528 545.829 363.071 545.831 363.625V374.565H352.891V406.655H545.831V417.605C545.831 418.158 545.987 418.7 546.281 419.168C546.575 419.636 546.996 420.012 547.494 420.252C547.992 420.493 548.548 420.587 549.097 420.526C549.647 420.465 550.168 420.249 550.601 419.905L584.901 392.905C585.246 392.631 585.526 392.282 585.717 391.885C585.909 391.487 586.009 391.052 586.009 390.61C586.009 390.169 585.909 389.733 585.717 389.336C585.526 388.939 585.246 388.59 584.901 388.315Z" fill="black"/>
<path d="M352.85 104.595V137.485C384.004 137.772 413.784 150.349 435.713 172.48C457.641 194.611 469.943 224.505 469.943 255.66C469.943 286.815 457.641 316.71 435.713 338.841C413.784 360.972 384.004 373.549 352.85 373.835H141.73V406.725H352.85C436.15 406.725 503.92 338.955 503.92 255.655C503.92 172.355 436.15 104.595 352.85 104.595Z" fill="#2972FF"/>
<path d="M359.24 94.1653L359.13 148.165C359.13 148.717 358.974 149.258 358.682 149.726C358.389 150.194 357.97 150.57 357.473 150.811C356.976 151.052 356.422 151.149 355.873 151.089C355.324 151.03 354.803 150.817 354.37 150.475L320.109 123.385C319.768 123.104 319.493 122.75 319.304 122.35C319.115 121.95 319.018 121.513 319.018 121.07C319.018 120.628 319.115 120.191 319.304 119.79C319.493 119.39 319.768 119.037 320.109 118.755L354.47 91.8353C354.91 91.5127 355.431 91.3166 355.975 91.2682C356.52 91.2199 357.067 91.3211 357.558 91.5609C358.049 91.8007 358.465 92.17 358.761 92.629C359.057 93.088 359.223 93.6192 359.24 94.1653Z" fill="#2972FF"/>
<path opacity="0.3" d="M359.221 374.775C359.871 374.775 345.821 383.675 336.321 383.605L335.421 407.605H329.141L317.141 375.515L359.221 374.775Z" fill="black"/>
<path d="M347.631 208.635C352.031 215.635 353.631 219.805 354.341 226.635C355.141 234.635 355.111 241.715 353.411 243.855C351.191 246.655 325.951 250.355 311.721 250.445C311.201 250.445 310.571 245.955 310.571 245.955C310.571 245.955 308.761 250.455 308.091 250.455C304.201 250.455 301.711 250.455 301.711 250.455C301.711 250.455 304.621 243.695 307.451 219.645C308.831 207.895 320.341 202.705 327.211 201.505C338.661 199.485 347.631 208.635 347.631 208.635Z" fill="#263238"/>
<path d="M314.881 232.715C310.881 226.455 306.371 209.295 321.621 203.225C340.621 195.655 349.881 207.595 352.121 219.735C354.361 231.875 347.881 241.445 335.061 241.115C322.241 240.785 317.661 237.045 314.881 232.715Z" fill="#263238"/>
<path d="M346.71 255.795C346.71 255.795 342.43 259.085 336.91 263.795C335.76 264.786 334.502 265.644 333.16 266.355C329.55 268.275 326.25 269.355 325.36 267.625C325.158 267.235 325.004 266.822 324.9 266.395C324.14 263.475 324.45 259.395 326.81 257.505C329.47 255.385 330.75 253.575 330.27 250.715C329.963 249.016 329.449 247.36 328.74 245.785L330.84 243.335L341.78 232.335C341.5 239.705 341 251.795 346.71 255.795Z" fill="#EBB373"/>
<path opacity="0.2" d="M330.361 251.385C333.361 249.595 336.671 246.495 336.271 242.955C336.142 241.656 335.857 240.376 335.421 239.145L329.311 247.235C329.802 248.579 330.154 249.97 330.361 251.385Z" fill="black"/>
<path d="M344.87 220.485C343.87 231.735 343.65 236.485 337.87 242.395C329.14 251.255 315.71 248.275 313.4 237.135C311.32 227.135 313.4 210.405 324.4 205.685C335.25 201.025 345.9 209.245 344.87 220.485Z" fill="#EBB373"/>
<path d="M330.781 224.565C330.721 225.695 330.021 226.625 329.231 226.645C328.441 226.665 327.841 225.755 327.901 224.645C327.961 223.535 328.661 222.575 329.451 222.565C330.241 222.555 330.841 223.425 330.781 224.565Z" fill="#263238"/>
<path d="M319.09 224.355C319.03 225.435 318.35 226.355 317.57 226.355C316.79 226.355 316.2 225.505 316.26 224.425C316.32 223.345 317.01 222.425 317.79 222.425C318.57 222.425 319.16 223.275 319.09 224.355Z" fill="#263238"/>
<path d="M332.37 220.415C332.294 220.431 332.216 220.431 332.141 220.415C332.065 220.4 331.993 220.369 331.93 220.325C331.345 219.909 330.671 219.632 329.962 219.518C329.253 219.404 328.527 219.454 327.84 219.665C327.773 219.696 327.7 219.713 327.626 219.714C327.552 219.716 327.478 219.702 327.41 219.674C327.341 219.646 327.279 219.604 327.228 219.551C327.176 219.498 327.136 219.435 327.11 219.365C327.071 219.216 327.089 219.057 327.161 218.92C327.234 218.783 327.354 218.678 327.5 218.625C328.364 218.342 329.282 218.263 330.181 218.397C331.08 218.531 331.936 218.873 332.68 219.395C332.739 219.441 332.788 219.498 332.824 219.563C332.859 219.629 332.881 219.701 332.888 219.775C332.894 219.849 332.885 219.924 332.862 219.995C332.838 220.065 332.8 220.13 332.75 220.185C332.652 220.302 332.519 220.383 332.37 220.415Z" fill="#263238"/>
<path d="M315.121 218.905C315.057 218.88 315 218.841 314.953 218.791C314.907 218.741 314.872 218.681 314.851 218.615C314.83 218.547 314.822 218.475 314.828 218.404C314.835 218.332 314.855 218.263 314.889 218.2C314.922 218.137 314.968 218.081 315.024 218.035C315.079 217.99 315.143 217.956 315.211 217.935C316.045 217.618 316.942 217.499 317.83 217.585C318.718 217.672 319.574 217.963 320.331 218.435C320.388 218.476 320.436 218.529 320.471 218.589C320.507 218.65 320.529 218.718 320.536 218.787C320.544 218.857 320.537 218.928 320.515 218.995C320.494 219.061 320.458 219.123 320.411 219.175C320.317 219.289 320.184 219.364 320.038 219.384C319.891 219.404 319.743 219.369 319.621 219.285C319.016 218.92 318.336 218.699 317.632 218.638C316.928 218.578 316.22 218.679 315.561 218.935C315.49 218.96 315.414 218.971 315.338 218.965C315.263 218.96 315.189 218.94 315.121 218.905Z" fill="#263238"/>
<path d="M335.48 210.495C331.91 214.245 333.68 228.435 343.72 230.295C355.29 227.565 346.16 199.285 335.48 210.495Z" fill="#263238"/>
<path d="M322.061 234.905C322.825 236.236 323.493 237.619 324.061 239.045C324.331 238.995 324.591 238.935 324.851 238.865C328.431 238.025 329.851 236.455 330.261 234.975C330.469 234.243 330.497 233.471 330.341 232.725C330.263 232.302 330.128 231.892 329.941 231.505C328.311 233.085 325.031 234.125 323.261 234.605C322.531 234.765 322.061 234.905 322.061 234.905Z" fill="#263238"/>
<path d="M323.27 234.555L323.9 235.755C327.27 234.955 329.53 233.945 330.35 232.675C330.272 232.252 330.137 231.842 329.95 231.455C328.32 233.035 325 234.075 323.27 234.555Z" fill="white"/>
<path d="M324.861 238.815C328.441 237.975 329.861 236.405 330.271 234.925C328.92 235.267 327.64 235.846 326.491 236.635C325.733 237.173 325.163 237.936 324.861 238.815Z" fill="#DC5753"/>
<path d="M322.24 223.565C322.24 223.565 320.13 228.635 317.92 231.115C319.35 232.505 321.92 231.775 321.92 231.775L322.24 223.565Z" fill="#E4873E"/>
<path d="M327.211 222.005L329.791 222.615C328.621 223.905 327.211 222.005 327.211 222.005Z" fill="#263238"/>
<path d="M315.68 221.905L318.26 222.515C317.09 223.815 315.68 221.905 315.68 221.905Z" fill="#263238"/>
<path d="M324.45 203.275C320.01 204.775 315.3 212.465 314.51 215.415C320.82 216.415 337.84 210.535 337.84 210.535C337.84 210.535 349.2 213.675 343.44 207.915C337.68 202.155 324.45 203.275 324.45 203.275Z" fill="#263238"/>
<path d="M348.281 229.655C347.09 231.738 345.124 233.265 342.811 233.905C339.811 234.645 338.301 229.905 339.321 226.905C339.801 225.566 340.741 224.44 341.974 223.729C343.207 223.018 344.652 222.769 346.051 223.025C348.901 223.585 349.791 227.015 348.281 229.655Z" fill="#EBB373"/>
<path d="M309.06 217.465C308.43 222.415 307.79 227.405 306.12 232.105C304.45 236.805 300.98 246.505 296.84 249.275" stroke="#263238" stroke-width="0.5" stroke-miterlimit="10"/>
<path d="M344.01 235.705C345.17 235.705 346.11 234.765 346.11 233.605C346.11 232.445 345.17 231.505 344.01 231.505C342.85 231.505 341.91 232.445 341.91 233.605C341.91 234.765 342.85 235.705 344.01 235.705Z" fill="#2972FF"/>
<path opacity="0.1" d="M345.92 226.445C345.422 226.308 344.899 226.285 344.39 226.377C343.881 226.468 343.399 226.673 342.98 226.975C342.566 227.284 342.225 227.681 341.983 228.138C341.741 228.594 341.603 229.099 341.58 229.615" stroke="black" stroke-width="0.5" stroke-linecap="round" stroke-linejoin="round"/>
<path d="M258.27 328.175C258.82 326.625 262.82 321.435 264.95 319.505C267.08 317.575 274.61 313.335 274.61 313.335L280.97 319.335C280.97 319.335 280.38 322.785 277.82 324.045C276.35 324.785 274.82 325.375 274.82 325.375C274.809 326.305 274.695 327.231 274.48 328.135C274.1 329.705 273.29 331.555 272.01 331.135C270.73 330.715 271.32 326.475 271.4 325.855C271.31 326.485 270.59 330.855 268.83 330.535C267.07 330.215 267.98 325.755 267.98 325.755C267.98 325.755 267.37 327.755 267.05 328.835C266.73 329.915 265.43 330.535 264.75 329.105C264.289 327.824 264.188 326.44 264.46 325.105C263.256 326.292 262.137 327.562 261.11 328.905C259.6 330.905 257.79 329.485 258.27 328.175Z" fill="#EBB373"/>
<path opacity="0.1" d="M271.26 326.735C271.396 325.923 271.611 325.126 271.9 324.355C272.178 323.565 272.678 322.87 273.34 322.355" stroke="black" stroke-width="0.5" stroke-linecap="round" stroke-linejoin="round"/>
<path opacity="0.1" d="M267.74 326.445C267.883 325.631 268.097 324.832 268.38 324.055C268.664 323.265 269.167 322.571 269.83 322.055" stroke="black" stroke-width="0.5" stroke-linecap="round" stroke-linejoin="round"/>
<path opacity="0.1" d="M264.461 325.295C264.595 324.484 264.806 323.687 265.091 322.915C265.376 322.125 265.879 321.432 266.541 320.915" stroke="black" stroke-width="0.5" stroke-linecap="round" stroke-linejoin="round"/>
<path d="M308.001 272.465C308.001 273.175 306.001 298.685 306.001 298.685C304.581 301.345 275.371 311.485 271.631 315.195L278.441 322.195C278.441 322.195 313.201 315.195 318.821 311.105C323.601 307.625 323.201 301.515 323.201 293.185C323.201 284.855 326.111 273.185 326.111 273.185L308.001 272.465Z" fill="#EBB373"/>
<path d="M321.231 257.395C307.451 259.755 305.551 280.155 305.551 280.155L303.461 296.355L295.641 302.055L303.001 317.665C303.001 317.665 318.611 311.725 325.471 307.665C332.331 303.605 332.471 272.485 332.471 272.485L321.231 257.395Z" fill="#2972FF"/>
<path opacity="0.2" d="M318.751 310.135C319.011 310.245 312.981 313.615 312.981 313.615C312.981 313.615 310.801 304.705 310.731 304.745C308.722 295.887 308.356 286.735 309.651 277.745C312.171 283.025 318.121 305.745 318.751 310.135Z" fill="black"/>
<path d="M321.78 328.595C333.27 327.445 348.21 326.525 367.65 326.085C367.65 326.085 382.15 360.235 364.96 370.435C359.76 373.515 351.19 374.735 341.75 374.935C339.149 374.999 336.561 374.543 334.139 373.592C331.718 372.642 329.51 371.217 327.647 369.401C325.783 367.585 324.302 365.415 323.289 363.019C322.277 360.622 321.753 358.047 321.75 355.445L321.78 328.595Z" fill="#263238"/>
<path d="M359.33 356.715V372.715C345.03 376.835 315.33 375.265 297.72 373.825C293.889 373.516 290.314 371.775 287.709 368.949C285.103 366.123 283.658 362.419 283.66 358.575V345.455C283.659 343.323 284.308 341.242 285.521 339.489C286.735 337.735 288.454 336.395 290.45 335.645C299 332.435 314.56 327.645 330.84 327.895C338.423 327.992 345.663 331.07 350.994 336.464C356.326 341.857 359.32 349.132 359.33 356.715Z" fill="#263238"/>
<path d="M370.241 326.085C368.021 323.155 362.871 316.145 362.241 308.765V308.705C362.241 308.225 362.171 307.705 362.171 307.275C362.061 304.145 362.081 300.425 362.281 295.965C362.281 295.275 362.351 294.535 362.391 293.795C362.521 291.455 362.701 288.935 362.921 286.195C363.341 281.275 363.921 275.665 364.751 269.285C364.931 267.815 366.321 265.525 366.531 263.965C367.461 257.015 361.131 251.965 354.291 252.275C352.471 252.345 350.531 252.465 348.571 252.665C341.628 253.166 334.73 254.169 327.931 255.665C325.721 256.185 323.431 256.805 321.251 257.435C313.391 259.695 309.771 269.745 309.671 277.835C309.581 285.375 314.861 300.765 318.491 314.285C319.021 322.035 314.791 326.285 316.061 328.965C317.331 331.645 354.821 324.325 370.261 333.535C370.241 333.495 372.611 329.215 370.241 326.085Z" fill="#2972FF"/>
<path opacity="0.3" d="M370.241 326.085C368.021 323.155 362.871 316.145 362.241 308.765V308.705C362.241 308.225 362.171 307.705 362.171 307.275C362.061 304.145 362.081 300.425 362.281 295.965C362.281 295.275 362.351 294.535 362.391 293.795C362.521 291.455 362.701 288.935 362.921 286.195C363.341 281.275 363.921 275.665 364.751 269.285C364.931 267.815 366.321 265.525 366.531 263.965C367.461 257.015 361.131 251.965 354.291 252.275C352.471 252.345 350.531 252.465 348.571 252.665C341.628 253.166 334.73 254.169 327.931 255.665C325.721 256.185 323.431 256.805 321.251 257.435C313.391 259.695 309.771 269.745 309.671 277.835C309.581 285.375 314.861 300.765 318.491 314.285C319.021 322.035 314.791 326.285 316.061 328.965C317.331 331.645 354.821 324.325 370.261 333.535C370.241 333.495 372.611 329.215 370.241 326.085Z" fill="white"/>
<path opacity="0.2" d="M364.27 316.295C364.27 316.295 351.04 319.195 344.89 319.475C338.74 319.755 325.42 323.955 325.42 323.955L320.68 326.905L319.01 323.005L327.01 315.785L362.01 308.695C362.508 311.298 363.265 313.844 364.27 316.295Z" fill="black"/>
<path opacity="0.2" d="M349.121 272.725L347.451 295.345L339.951 302.685L345.201 306.775L352.341 302.465L356.031 289.745L349.121 272.725Z" fill="black"/>
<path d="M292.56 479.165L310.12 471.415L315.67 465.225L317.39 467.555L319.48 466.635C320.48 458.845 316.68 455.205 314.69 453.545C314.55 453.425 314.34 453.285 314.11 453.095L313.87 452.915C313.838 452.899 313.807 452.879 313.78 452.855L313.51 452.655H313.44L313.29 452.555L303.65 456.815C303.65 456.815 303.49 457.325 303.19 458.145C302.19 460.855 299.85 467.035 297.19 470.335L296.85 470.745C296.552 471.112 296.216 471.447 295.85 471.745C288.53 477.605 292.56 479.165 292.56 479.165Z" fill="#263238"/>
<path d="M296.85 470.645C299.59 471.715 303.47 469.005 306.42 465.455C308.193 462.998 309.748 460.392 311.07 457.665C311.728 456.306 312.562 455.038 313.55 453.895C313.96 453.535 314.34 453.375 314.67 453.535C314.53 453.405 314.33 453.265 314.09 453.075C314.014 453.013 313.934 452.956 313.85 452.905L313.76 452.835L313.49 452.635C313.49 452.635 313.49 452.635 313.43 452.635L313.27 452.545C312.27 451.785 311.14 451.015 311.14 451.015L302.08 453.285L302.78 456.755C301.78 460.335 299.64 467.145 297.2 470.315C297.07 470.375 297 470.525 296.85 470.645Z" fill="#EBB373"/>
<path d="M282.091 403.145C287.691 417.045 296.381 434.755 302.791 456.965C302.911 457.365 303.031 457.775 303.141 458.175C303.251 458.575 303.391 459.025 303.511 459.455L310.141 457.845L310.431 456.685C310.431 456.685 312.711 454.915 312.321 454.505C311.931 454.095 312.241 453.755 312.201 453.335C310.411 437.845 303.541 380.995 296.721 369.185C296.721 369.185 304.451 370.625 310.301 369.635C314.531 368.925 319.641 339.715 319.641 339.715C312.527 337.799 305.206 336.761 297.841 336.625H297.691C297.691 336.625 276.001 343.035 270.471 347.905C265.281 352.475 264.471 359.955 267.381 368.855C270.001 377.005 275.161 385.905 282.091 403.145Z" fill="#EBB373"/>
<path opacity="0.1" d="M275.89 354.905C277.17 349.855 286.47 344.905 296.08 342.275C297.64 340.275 293.65 337.865 293.65 337.865L312.56 336.155L315.86 338.525L321.5 339.705L316.5 362.295L295.82 365.905L308.88 426.545L310.43 438.545C310.43 438.545 288.29 391.045 283.66 380.935C279.03 370.825 273.66 363.675 275.89 354.905Z" fill="black"/>
<path d="M319.651 339.715C319.651 339.715 290.141 345.965 284.371 350.515C279.471 354.395 279.371 359.455 280.921 364.235C285.321 377.445 301.101 399.475 319.161 462.705L329.511 459.455C328.511 459.455 325.921 426.455 325.151 399.925C324.791 387.415 318.371 376.635 315.861 372.275C315.861 372.275 326.411 373.705 332.261 372.725C339.781 371.455 344.541 346.365 319.651 339.715Z" fill="#EBB373"/>
<path opacity="0.2" d="M316.47 373.465C316.47 373.465 312.56 366.975 307.67 364.235C307.67 364.235 313.67 364.625 317.44 372.465L315.86 372.275L316.47 373.465Z" fill="black"/>
<path d="M333.001 473.075L330.851 473.545L329.051 470.545C329.001 470.463 328.933 470.393 328.853 470.34C328.773 470.286 328.682 470.251 328.586 470.237C328.491 470.223 328.394 470.23 328.301 470.257C328.209 470.284 328.123 470.331 328.051 470.395L321.921 476.075L305.181 479.745C305.181 479.745 301.451 475.805 309.771 473.295C310.187 473.124 310.567 472.877 310.891 472.565C315.011 469.405 319.951 460.695 319.951 460.695L329.871 458.525C330.271 458.918 330.645 459.335 330.991 459.775C332.551 461.735 335.431 465.905 333.001 473.075Z" fill="#263238"/>
<path d="M331 459.795C329.37 458.625 324.82 466.345 320.93 469.485C317.46 472.275 313.27 474.095 310.93 472.555C315.05 469.395 320.21 458.405 320.21 458.405L328.21 456.655C328.21 456.655 330.32 458.965 331 459.795Z" fill="#EBB373"/>
<path d="M300.601 343.985L329.691 332.905C329.832 332.849 329.949 332.747 330.024 332.615C330.099 332.484 330.127 332.33 330.104 332.181C330.081 332.031 330.007 331.894 329.896 331.791C329.785 331.688 329.642 331.626 329.491 331.615L282.801 331.055C282.687 331.055 282.575 331.089 282.481 331.155L264.481 342.775C264.366 342.853 264.277 342.965 264.227 343.096C264.177 343.226 264.168 343.368 264.202 343.504C264.236 343.639 264.311 343.761 264.416 343.853C264.521 343.944 264.652 344.001 264.791 344.015H300.341C300.429 344.028 300.519 344.017 300.601 343.985Z" fill="#263238"/>
<path opacity="0.7" d="M300.601 343.985L329.691 332.905C329.832 332.849 329.949 332.747 330.024 332.615C330.099 332.484 330.127 332.33 330.104 332.181C330.081 332.031 330.007 331.894 329.896 331.791C329.785 331.688 329.642 331.626 329.491 331.615L282.801 331.055C282.687 331.055 282.575 331.089 282.481 331.155L264.481 342.775C264.366 342.853 264.277 342.965 264.227 343.096C264.177 343.226 264.168 343.368 264.202 343.504C264.236 343.639 264.311 343.761 264.416 343.853C264.521 343.944 264.652 344.001 264.791 344.015H300.341C300.429 344.028 300.519 344.017 300.601 343.985Z" fill="white"/>
<path opacity="0.7" d="M300.7 340.685L319.46 333.775L297.48 333.315L300.7 340.685Z" fill="white"/>
<path opacity="0.3" d="M329.691 332.905L300.601 343.985C300.531 344 300.46 344 300.391 343.985H299.941L299.391 342.385L329.491 331.585C329.658 331.574 329.823 331.627 329.954 331.732C330.085 331.837 330.171 331.988 330.196 332.153C330.221 332.319 330.183 332.489 330.09 332.628C329.996 332.767 329.854 332.866 329.691 332.905Z" fill="black"/>
<path d="M262.62 344.025H300.5C300.643 344.038 300.787 344.021 300.923 343.978C301.06 343.934 301.186 343.863 301.295 343.77C301.404 343.677 301.493 343.563 301.557 343.435C301.622 343.308 301.66 343.168 301.67 343.025C301.671 342.925 301.65 342.827 301.61 342.735L284.76 304.105C284.481 303.521 284.034 303.032 283.477 302.701C282.92 302.37 282.277 302.211 281.63 302.245H243.73C243.592 302.223 243.45 302.229 243.315 302.265C243.179 302.3 243.053 302.364 242.943 302.452C242.834 302.54 242.744 302.649 242.68 302.774C242.616 302.899 242.578 303.035 242.57 303.175C242.57 303.282 242.59 303.387 242.63 303.485L259.49 342.125C259.766 342.716 260.211 343.211 260.768 343.549C261.325 343.887 261.969 344.053 262.62 344.025Z" fill="#263238"/>
<path opacity="0.7" d="M243.73 302.285H281.63C282.277 302.251 282.92 302.41 283.477 302.741C284.034 303.072 284.481 303.561 284.76 304.145L301.61 342.775C301.65 342.867 301.671 342.965 301.67 343.065C301.66 343.208 301.622 343.348 301.557 343.475C301.493 343.603 301.404 343.717 301.295 343.81C301.186 343.903 301.06 343.974 300.923 344.018C300.787 344.061 300.643 344.078 300.5 344.065H262.62C261.973 344.095 261.331 343.934 260.773 343.604C260.215 343.273 259.766 342.787 259.48 342.205L242.63 303.565C242.59 303.467 242.57 303.362 242.57 303.255C242.573 303.112 242.606 302.971 242.668 302.841C242.73 302.712 242.819 302.597 242.929 302.505C243.039 302.413 243.167 302.346 243.306 302.308C243.444 302.27 243.589 302.262 243.73 302.285Z" fill="white"/>
<path d="M267.201 324.015C268.021 325.865 269.681 327.145 270.911 326.885C272.141 326.625 272.481 324.885 271.691 323.075C270.901 321.265 269.211 319.975 267.981 320.225C266.751 320.475 266.371 322.115 267.201 324.015Z" fill="white"/>
<path opacity="0.3" d="M281.4 302.285H281.63C282.278 302.251 282.92 302.41 283.477 302.741C284.034 303.072 284.481 303.561 284.76 304.145L301.61 342.775C301.65 342.867 301.671 342.966 301.67 343.065C301.66 343.208 301.622 343.348 301.557 343.476C301.493 343.603 301.404 343.717 301.295 343.81C301.186 343.903 301.06 343.974 300.923 344.018C300.787 344.061 300.643 344.078 300.5 344.065H299.28L281.4 302.285Z" fill="black"/>
<path d="M349.85 270.595C349.85 271.295 352.13 296.595 352.13 296.595C350.71 299.255 321.5 309.395 317.76 313.105L324.57 320.105C324.57 320.105 359.33 313.105 364.94 309.005C369.73 305.525 369.33 299.425 369.33 291.085C369.128 284.229 368.521 277.39 367.51 270.605L349.85 270.595Z" fill="#EBB373"/>
<path d="M352.801 254.995C345.621 257.995 351.101 296.425 351.101 296.425L344.041 299.425L348.381 315.775C348.381 315.775 357.081 314.125 365.771 312.355C374.961 310.485 376.311 289.265 371.711 272.085C367.111 254.905 361.201 251.495 352.801 254.995Z" fill="#2972FF"/>
<path d="M305.561 331.475C305.721 329.835 308.321 323.825 309.911 321.425C311.501 319.025 317.761 313.075 317.761 313.075L325.411 317.355C325.411 317.355 325.671 320.845 323.511 322.705C322.261 323.775 320.921 324.705 320.921 324.705C321.146 325.609 321.266 326.535 321.281 327.465C321.281 329.085 320.961 331.075 319.631 331.015C318.301 330.955 317.811 326.665 317.741 326.015C317.811 326.635 318.171 331.015 316.391 331.175C314.611 331.335 314.391 326.745 314.391 326.745C314.391 326.745 314.301 328.885 314.251 329.965C314.201 331.045 313.101 331.965 312.091 330.795C311.324 329.66 310.884 328.334 310.821 326.965C309.945 328.412 309.173 329.919 308.511 331.475C307.511 333.765 305.421 332.905 305.561 331.475Z" fill="#EBB373"/>
<path opacity="0.1" d="M317.8 326.905C317.725 326.087 317.725 325.264 317.8 324.445C317.892 323.621 318.211 322.839 318.72 322.185" stroke="black" stroke-width="0.5" stroke-linecap="round" stroke-linejoin="round"/>
<path opacity="0.1" d="M314.32 327.465C314.245 326.647 314.245 325.824 314.32 325.005C314.412 324.181 314.73 323.399 315.24 322.745" stroke="black" stroke-width="0.5" stroke-linecap="round" stroke-linejoin="round"/>
<path opacity="0.1" d="M310.851 327.165C310.771 326.344 310.771 325.517 310.851 324.695C310.941 323.873 311.256 323.091 311.761 322.435" stroke="black" stroke-width="0.5" stroke-linecap="round" stroke-linejoin="round"/>
<path d="M118.05 438.847C144.035 438.847 165.1 417.782 165.1 391.797C165.1 365.812 144.035 344.747 118.05 344.747C92.0649 344.747 71 365.812 71 391.797C71 417.782 92.0649 438.847 118.05 438.847Z" fill="white" stroke="#263238" stroke-miterlimit="10"/>
<path d="M126.966 421.87C126.966 424.944 122.697 427.408 117.497 427.326C112.297 427.243 108.168 424.729 108.168 421.655C108.168 418.581 112.437 416.117 117.629 416.216C122.821 416.315 127.008 418.804 126.966 421.87Z" fill="#263238"/>
<path d="M131.03 411.733C131.53 411.245 131.825 410.585 131.854 409.887C131.854 406.879 125.517 404.349 117.613 404.283C109.71 404.217 103.281 406.557 103.24 409.565C103.272 410.263 103.567 410.922 104.064 411.411C103.917 411.698 103.833 412.013 103.817 412.335C103.824 412.682 103.901 413.024 104.042 413.341C104.184 413.658 104.387 413.944 104.641 414.181C104.469 414.479 104.375 414.817 104.369 415.161C104.376 415.508 104.453 415.851 104.594 416.168C104.736 416.485 104.94 416.77 105.193 417.007C105.008 417.307 104.908 417.652 104.905 418.005C104.925 418.351 105.017 418.689 105.176 418.997C105.335 419.305 105.557 419.576 105.828 419.793C105.631 420.092 105.523 420.44 105.515 420.798C105.515 423.271 110.781 425.414 117.349 425.471C123.918 425.529 129.266 423.625 129.291 421.07C129.292 420.709 129.192 420.356 129.003 420.048C129.271 419.834 129.492 419.565 129.651 419.26C129.81 418.955 129.904 418.62 129.926 418.277C129.918 417.927 129.825 417.584 129.654 417.279C129.919 417.058 130.137 416.785 130.296 416.478C130.454 416.171 130.55 415.835 130.577 415.491C130.574 415.146 130.489 414.807 130.33 414.502C130.594 414.278 130.812 414.004 130.97 413.696C131.129 413.388 131.225 413.051 131.253 412.705C131.248 412.369 131.172 412.038 131.03 411.733Z" fill="#263238"/>
<path opacity="0.3" d="M131.03 411.733C131.53 411.245 131.825 410.585 131.854 409.887C131.854 406.879 125.517 404.349 117.613 404.283C109.71 404.217 103.281 406.557 103.24 409.565C103.272 410.263 103.567 410.922 104.064 411.411C103.917 411.698 103.833 412.013 103.817 412.335C103.824 412.682 103.901 413.024 104.042 413.341C104.184 413.658 104.387 413.944 104.641 414.181C104.469 414.479 104.375 414.817 104.369 415.161C104.376 415.508 104.453 415.851 104.594 416.168C104.736 416.485 104.94 416.77 105.193 417.007C105.008 417.307 104.908 417.652 104.905 418.005C104.925 418.351 105.017 418.689 105.176 418.997C105.335 419.305 105.557 419.576 105.828 419.793C105.631 420.092 105.523 420.44 105.515 420.798C105.515 423.271 110.781 425.414 117.349 425.471C123.918 425.529 129.266 423.625 129.291 421.07C129.292 420.709 129.192 420.356 129.003 420.048C129.271 419.834 129.492 419.565 129.651 419.26C129.81 418.955 129.904 418.62 129.926 418.277C129.918 417.927 129.825 417.584 129.654 417.279C129.919 417.058 130.137 416.785 130.296 416.478C130.454 416.171 130.55 415.835 130.577 415.491C130.574 415.146 130.489 414.807 130.33 414.502C130.594 414.278 130.812 414.004 130.97 413.696C131.129 413.388 131.225 413.051 131.253 412.705C131.248 412.369 131.172 412.038 131.03 411.733Z" fill="white"/>
<path d="M142.881 385.155C142.932 380.885 141.902 376.672 139.888 372.907C137.873 369.142 134.939 365.948 131.358 363.622C127.777 361.296 123.667 359.913 119.408 359.602C115.149 359.292 110.881 360.063 107.001 361.845C103.12 363.627 99.7537 366.361 97.2138 369.793C94.674 373.226 93.0435 377.245 92.4742 381.477C91.9048 385.708 92.4149 390.015 93.9572 393.997C95.4995 397.979 98.0238 401.506 101.295 404.25C101.82 404.686 102.23 405.243 102.49 405.874C102.75 406.504 102.852 407.189 102.787 407.868C102.778 407.936 102.778 408.005 102.787 408.074C102.787 411.123 109.248 413.686 117.259 413.777C125.269 413.867 131.813 411.461 131.846 408.395V408.197C131.785 407.504 131.897 406.806 132.174 406.167C132.45 405.528 132.881 404.969 133.428 404.538C136.337 402.205 138.693 399.257 140.327 395.906C141.962 392.555 142.834 388.883 142.881 385.155Z" fill="#FFB800"/>
<path opacity="0.5" d="M130.972 370.452C130.972 375.397 125.203 379.386 118.049 379.386C110.896 379.386 105.127 375.38 105.127 370.452C105.127 365.524 110.896 361.51 118.049 361.51C125.203 361.51 130.972 365.515 130.972 370.452Z" fill="white"/>
<path d="M98.2789 394.484C96.0502 390.672 95.1867 386.214 95.8309 381.846C96.4751 377.477 98.5885 373.458 101.823 370.452" stroke="white" stroke-linecap="round" stroke-linejoin="round"/>
<path d="M105.869 419.851C113.255 422.928 121.545 423.028 129.003 420.131C125.338 421.691 121.389 422.471 117.406 422.423C113.424 422.375 109.495 421.499 105.869 419.851Z" fill="#263238"/>
<path d="M105.695 417.139C113.079 420.213 121.365 420.313 128.821 417.419C125.156 418.975 121.209 419.753 117.229 419.705C113.248 419.657 109.321 418.783 105.695 417.139Z" fill="#263238"/>
<path d="M105.531 414.42C112.915 417.493 121.201 417.593 128.656 414.7C124.992 416.255 121.045 417.034 117.064 416.986C113.084 416.937 109.157 416.064 105.531 414.42Z" fill="#263238"/>
<path d="M112.091 408.412C114.032 401.716 114.365 394.657 113.064 387.808C112.858 386.704 112.355 385.336 111.366 385.336C110.377 385.336 109.907 386.399 109.718 387.388C109.042 390.866 110.847 394.401 113.154 396.8C114.399 398.102 115.915 399.272 117.605 399.321C118.485 399.3 119.349 399.088 120.139 398.7C120.929 398.311 121.625 397.756 122.179 397.072C123.394 395.712 124.269 394.083 124.733 392.32C125.198 390.557 125.237 388.708 124.849 386.926C124.494 385.418 123.415 383.795 122.072 384.083C121.646 384.227 121.268 384.484 120.977 384.827C120.687 385.17 120.495 385.585 120.423 386.028C120.259 386.958 120.259 387.909 120.423 388.838C121.27 395.529 122.905 402.096 125.294 408.403" stroke="#263238" stroke-miterlimit="10"/>
<path d="M422.529 423.905C422.529 423.905 521.159 400.795 525.849 421.345C532.549 450.665 461.379 470.395 423.479 469.195C385.579 467.995 422.529 423.905 422.529 423.905Z" fill="#263238"/>
<path opacity="0.2" d="M422.529 423.905C422.529 423.905 521.159 400.795 525.849 421.345C532.549 450.665 461.379 470.395 423.479 469.195C385.579 467.995 422.529 423.905 422.529 423.905Z" fill="black"/>
<path opacity="0.7" d="M493.489 427.665L447.169 457.105L453.349 465.885C453.349 465.885 450.089 470.715 443.889 455.885L472.549 436.905C472.549 436.905 463.549 436.005 463.809 434.605C464.189 432.295 483.899 427.915 492.879 425.945C493.102 425.864 493.347 425.875 493.563 425.974C493.778 426.073 493.945 426.253 494.029 426.475C494.073 426.589 494.095 426.71 494.092 426.832C494.088 426.954 494.061 427.074 494.011 427.185C493.96 427.296 493.888 427.395 493.798 427.478C493.709 427.56 493.603 427.624 493.489 427.665Z" fill="black"/>
<path opacity="0.7" d="M445.49 453.785L453.49 466.785C443.586 468.512 433.542 469.305 423.49 469.155C420.186 469.13 416.911 468.534 413.81 467.395L411 462.255L417.07 450.025L445.49 453.785Z" fill="black"/>
<path d="M460.819 448.605L440.219 461.675L443.909 471.675L468.099 460.805L460.819 448.605Z" fill="#EBB373"/>
<path d="M428.879 465.025L430.879 472.215C431.339 472.328 431.764 472.554 432.113 472.874C432.463 473.194 432.726 473.597 432.879 474.045C432.947 475.122 432.825 476.201 432.519 477.235L437.999 497.055C438.659 496.889 439.294 496.637 439.889 496.305C440.47 495.897 441.001 495.42 441.469 494.885C442.929 493.195 443.089 490.745 443.149 488.885C443.239 485.885 444.989 476.955 444.989 476.955C445.604 475.246 446.68 473.74 448.099 472.605C448.655 472.212 449.113 471.694 449.435 471.094C449.758 470.493 449.937 469.827 449.959 469.145C449.709 467.335 448.399 466.655 446.709 466.855L444.709 467.095C444.015 466.594 443.534 465.852 443.358 465.014C443.182 464.176 443.325 463.303 443.759 462.565C443.759 462.565 444.929 458.255 443.119 458.975C442.119 459.395 437.539 461.425 433.889 462.915L431.539 463.915L428.879 465.025Z" fill="#263238"/>
<path d="M444.179 481.745C444.203 481.69 444.21 481.628 444.197 481.569C444.185 481.51 444.154 481.456 444.109 481.415C443.678 481.014 443.145 480.738 442.569 480.615C442.249 480.545 442.109 481.055 442.429 481.115C442.937 481.223 443.406 481.465 443.789 481.815C443.816 481.841 443.848 481.861 443.884 481.872C443.92 481.884 443.957 481.886 443.994 481.881C444.031 481.875 444.066 481.86 444.097 481.839C444.127 481.817 444.152 481.788 444.169 481.755L444.179 481.745Z" fill="#2972FF"/>
<path d="M444.58 479.995C444.608 479.939 444.617 479.875 444.604 479.813C444.591 479.751 444.558 479.696 444.51 479.655C444.083 479.275 443.561 479.016 443 478.905C442.69 478.835 442.54 479.335 442.86 479.405C443.37 479.506 443.841 479.749 444.22 480.105C444.248 480.131 444.282 480.15 444.319 480.16C444.356 480.171 444.395 480.173 444.432 480.166C444.47 480.159 444.506 480.144 444.536 480.121C444.567 480.099 444.592 480.069 444.61 480.035L444.58 479.995Z" fill="#2972FF"/>
<path d="M444.919 478.205C444.944 478.15 444.95 478.088 444.937 478.029C444.925 477.97 444.894 477.916 444.849 477.875C444.422 477.469 443.888 477.191 443.309 477.075C442.989 477.005 442.849 477.515 443.169 477.575C443.677 477.683 444.147 477.925 444.529 478.275C444.557 478.301 444.59 478.321 444.627 478.332C444.663 478.344 444.701 478.346 444.739 478.341C444.777 478.335 444.812 478.321 444.844 478.299C444.875 478.277 444.901 478.249 444.919 478.215V478.205Z" fill="#2972FF"/>
<path opacity="0.2" d="M431.519 463.905L428.879 464.995L430.879 472.185C431.339 472.298 431.764 472.524 432.113 472.844C432.463 473.164 432.726 473.567 432.879 474.015C432.947 475.091 432.825 476.171 432.519 477.205L437.999 497.055C438.659 496.889 439.294 496.637 439.889 496.305C440.179 496.095 440.439 495.885 440.689 495.665L431.959 463.775L431.519 463.905Z" fill="white"/>
<path d="M444.639 478.085C445.301 477.814 445.987 477.606 446.689 477.465C447.393 477.314 448.126 477.355 448.809 477.585C448.969 477.626 449.117 477.705 449.239 477.817C449.362 477.929 449.454 478.069 449.509 478.225C449.522 478.4 449.486 478.575 449.404 478.731C449.323 478.887 449.2 479.016 449.049 479.105C448.766 479.289 448.451 479.416 448.12 479.478C447.788 479.539 447.448 479.535 447.119 479.465C446.227 479.133 445.391 478.667 444.639 478.085Z" stroke="#2972FF" stroke-width="0.25" stroke-miterlimit="10"/>
<path d="M444.608 478.005C445.183 477.577 445.718 477.098 446.208 476.575C446.702 476.052 447.047 475.406 447.208 474.705C447.259 474.546 447.27 474.377 447.238 474.212C447.207 474.048 447.135 473.894 447.028 473.765C446.885 473.661 446.714 473.6 446.537 473.589C446.36 473.579 446.183 473.619 446.028 473.705C445.724 473.849 445.451 474.052 445.226 474.303C445.001 474.553 444.828 474.847 444.718 475.165C444.533 476.1 444.493 477.058 444.598 478.005" stroke="#2972FF" stroke-width="0.25" stroke-miterlimit="10"/>
<path d="M463.279 361.135C463.279 361.135 466.879 393.195 467.839 394.925C471.099 400.735 492.659 410.715 492.659 410.715L503.659 408.415L511.539 414.995L506.339 419.065L500.249 416.755C496.923 417.351 493.549 417.649 490.169 417.645C484.489 417.645 457.099 410.695 452.529 403.065C447.959 395.435 445.859 360.065 445.859 360.065L463.279 361.135Z" fill="#EBB373"/>
<path d="M445.389 373.735C445.389 373.735 436.939 345.575 447.469 337.735C457.999 329.895 466.369 368.635 466.369 368.635L445.389 373.735Z" fill="#2972FF"/>
<path opacity="0.5" d="M445.389 373.735C445.389 373.735 436.939 345.575 447.469 337.735C457.999 329.895 466.369 368.635 466.369 368.635L445.389 373.735Z" fill="white"/>
<path d="M452.06 425.245L452 387.905L451.19 336.795L429.14 332.005L409.95 331.155L388.1 341.155L387.59 353.695C387.59 353.695 390.09 411.285 389.95 413.015C389.78 415.145 383.59 428.505 383.59 428.505C411.16 434.815 452.49 427.155 452.06 425.245Z" fill="#2972FF"/>
<path opacity="0.5" d="M452.06 425.245L452 387.905L451.19 336.795L429.14 332.005L409.95 331.155L388.1 341.155L387.59 353.695C387.59 353.695 390.09 411.285 389.95 413.015C389.78 415.145 383.59 428.505 383.59 428.505C411.16 434.815 452.49 427.155 452.06 425.245Z" fill="white"/>
<path d="M449.998 301.105C450.583 301.019 451.12 300.731 451.517 300.293C451.913 299.854 452.145 299.291 452.172 298.7C452.199 298.109 452.02 297.527 451.666 297.054C451.311 296.581 450.803 296.245 450.228 296.105L444.568 295.535L445.378 306.425C446.468 306.75 447.629 306.75 448.718 306.425C449.259 306.255 449.751 305.96 450.156 305.564C450.561 305.168 450.867 304.682 451.048 304.145C451.231 303.594 451.227 302.997 451.037 302.448C450.848 301.898 450.482 301.427 449.998 301.105Z" fill="#263238"/>
<path d="M428.42 322.035L416.27 306.755C416.27 306.755 416.27 306.755 416.27 306.805C416.27 308.245 416.22 309.905 416.1 311.665C416.1 311.665 414.8 311.035 414.79 311.055C414.27 318.995 411.13 332.545 411.27 333.715L424 340.065H426.57L426.78 332.565C425.52 329.335 426.73 325.565 428.42 322.035Z" fill="#EBB373"/>
<path opacity="0.2" d="M426.599 327.195L418.909 321.125C418.719 324.215 420.339 329.075 426.499 331.595C426.168 330.143 426.202 328.631 426.599 327.195Z" fill="black"/>
<path d="M418.86 299.175C416.34 309.465 415.4 314.405 418.91 321.175C424.2 331.285 437.11 331.365 442.66 322.015C447.66 313.585 450.94 298.175 442.25 291.185C440.329 289.635 438.047 288.597 435.617 288.167C433.186 287.738 430.686 287.931 428.351 288.729C426.015 289.526 423.92 290.903 422.26 292.73C420.6 294.557 419.431 296.774 418.86 299.175Z" fill="#EBB373"/>
<path d="M421 285.205C424.11 280.075 432.26 279.205 435.28 283.295C435.73 283.895 430.86 284.045 431.42 284.015L428.56 292.125C428 291.805 426.61 292.125 425.42 293.815C425.42 293.815 423.59 304.965 417.81 308.075C412.17 300.255 412.81 285.225 421 285.205Z" fill="#263238"/>
<path d="M412.26 306.345C412.269 307.66 412.538 308.961 413.053 310.171C413.568 311.381 414.318 312.477 415.26 313.395C417.81 315.825 420.76 313.945 421.47 310.675C422.1 307.675 421.53 302.915 418.3 301.675C415.07 300.435 412.26 303.095 412.26 306.345Z" fill="#EBB373"/>
<path d="M432.789 307.795C432.469 308.795 432.789 309.795 433.439 310.035C434.089 310.275 434.929 309.565 435.249 308.525C435.569 307.485 435.249 306.525 434.599 306.295C433.949 306.065 433.109 306.755 432.789 307.795Z" fill="#263238"/>
<path d="M442.92 311.085C442.6 312.085 442.92 313.085 443.57 313.325C444.22 313.565 445.06 312.855 445.38 311.825C445.7 310.795 445.38 309.825 444.73 309.585C444.08 309.345 443.24 310.055 442.92 311.085Z" fill="#263238"/>
<path d="M439.36 308.325C439.36 308.325 440.64 313.035 441.23 315.825C441.263 315.98 441.263 316.14 441.229 316.295C441.195 316.45 441.129 316.596 441.034 316.722C440.94 316.849 440.819 316.955 440.68 317.031C440.541 317.107 440.388 317.153 440.23 317.165C439.216 317.144 438.223 316.873 437.34 316.375L439.36 308.325Z" fill="#E4873E"/>
<path d="M431.708 301.595C431.779 301.652 431.863 301.689 431.953 301.703C432.042 301.717 432.134 301.708 432.218 301.675C432.809 301.434 433.447 301.335 434.083 301.385C434.718 301.436 435.333 301.634 435.878 301.965C435.988 302.042 436.123 302.073 436.255 302.053C436.388 302.032 436.507 301.962 436.588 301.855C436.629 301.802 436.658 301.741 436.675 301.676C436.691 301.611 436.694 301.543 436.684 301.477C436.674 301.411 436.65 301.347 436.615 301.29C436.58 301.233 436.533 301.184 436.478 301.145C435.795 300.717 435.021 300.457 434.218 300.386C433.415 300.315 432.606 300.434 431.858 300.735C431.796 300.758 431.738 300.792 431.688 300.837C431.639 300.882 431.599 300.937 431.571 300.997C431.543 301.058 431.528 301.123 431.526 301.19C431.523 301.257 431.535 301.323 431.558 301.385C431.588 301.468 431.64 301.541 431.708 301.595Z" fill="#263238"/>
<path d="M448.299 306.385C448.399 306.371 448.492 306.329 448.569 306.265C448.665 306.17 448.718 306.04 448.718 305.905C448.718 305.77 448.665 305.641 448.569 305.545C448.05 304.935 447.393 304.459 446.651 304.156C445.91 303.853 445.107 303.733 444.309 303.805C444.178 303.83 444.062 303.904 443.984 304.012C443.905 304.119 443.872 304.253 443.889 304.385C443.898 304.451 443.919 304.514 443.953 304.571C443.987 304.628 444.031 304.678 444.085 304.717C444.138 304.756 444.199 304.784 444.263 304.8C444.327 304.815 444.394 304.817 444.459 304.805C445.091 304.754 445.726 304.856 446.309 305.103C446.892 305.35 447.407 305.736 447.809 306.225C447.87 306.292 447.947 306.342 448.033 306.37C448.119 306.398 448.211 306.404 448.299 306.385Z" fill="#263238"/>
<path d="M431.94 318.475C432.292 318.767 432.67 319.025 433.07 319.245C433.133 319.277 433.205 319.287 433.274 319.272C433.343 319.258 433.406 319.22 433.45 319.165C433.477 319.097 433.479 319.021 433.455 318.951C433.431 318.882 433.383 318.823 433.32 318.785C432.303 318.237 431.428 317.458 430.768 316.509C430.108 315.561 429.68 314.47 429.52 313.325C429.513 313.257 429.48 313.195 429.428 313.15C429.376 313.106 429.309 313.082 429.24 313.085C429.209 313.083 429.178 313.086 429.148 313.096C429.119 313.106 429.091 313.121 429.068 313.142C429.045 313.162 429.026 313.187 429.012 313.216C428.999 313.244 428.991 313.274 428.99 313.305V313.365C429.109 314.373 429.431 315.346 429.939 316.224C430.446 317.103 431.127 317.869 431.94 318.475Z" fill="#263238"/>
<path d="M455.119 293.435C454.429 291.375 451.979 290.515 449.819 290.355C450.496 290.283 451.121 289.959 451.571 289.448C452.021 288.937 452.263 288.276 452.249 287.595C452.206 286.916 452.012 286.255 451.682 285.66C451.352 285.065 450.893 284.551 450.339 284.155C449.375 283.414 448.237 282.933 447.034 282.758C445.831 282.583 444.604 282.72 443.469 283.155C443.675 283.037 443.833 282.85 443.913 282.626C443.994 282.403 443.992 282.158 443.909 281.935C443.718 281.507 443.4 281.147 442.999 280.905C441.827 280.06 440.403 279.639 438.961 279.71C437.518 279.781 436.142 280.34 435.059 281.295C434.643 280.064 433.788 279.03 432.656 278.392C431.525 277.753 430.197 277.555 428.929 277.835C426.479 278.475 421.859 278.965 421.149 285.235C420.61 284.821 419.995 284.519 419.338 284.347C418.681 284.175 417.996 284.136 417.324 284.232C416.652 284.329 416.006 284.559 415.424 284.909C414.842 285.258 414.336 285.721 413.935 286.27C413.535 286.818 413.248 287.441 413.093 288.102C412.937 288.763 412.915 289.449 413.028 290.118C413.141 290.788 413.387 291.428 413.751 292.001C414.115 292.574 414.591 293.069 415.149 293.455C414.567 293.253 413.93 293.283 413.371 293.54C412.811 293.798 412.373 294.262 412.149 294.835C411.95 295.411 411.908 296.03 412.028 296.628C412.147 297.225 412.424 297.78 412.829 298.235C413.682 299.132 414.788 299.749 415.999 300.005C417.091 300.37 418.265 300.409 419.379 300.115C419.933 299.962 420.437 299.665 420.839 299.254C421.241 298.843 421.527 298.333 421.669 297.775C421.792 298.36 422.126 298.88 422.607 299.234C423.089 299.588 423.684 299.752 424.279 299.695C424.869 299.609 425.418 299.338 425.845 298.921C426.273 298.505 426.557 297.964 426.659 297.375C426.736 296.782 426.655 296.179 426.423 295.627C426.191 295.075 425.817 294.595 425.339 294.235C425.691 294.533 426.105 294.748 426.552 294.864C426.998 294.98 427.465 294.994 427.918 294.905C428.37 294.815 428.797 294.625 429.166 294.348C429.535 294.071 429.837 293.715 430.049 293.305C430.957 295.29 432.511 296.909 434.459 297.895C436.459 298.745 439.069 298.385 440.339 296.635C440.953 297.415 441.673 298.105 442.479 298.685C442.888 298.969 443.353 299.161 443.843 299.249C444.333 299.337 444.837 299.319 445.319 299.195C445.794 299.053 446.203 298.746 446.474 298.331C446.745 297.915 446.86 297.418 446.799 296.925C447.561 297.605 448.481 298.081 449.475 298.312C450.469 298.543 451.506 298.52 452.489 298.245C453.45 297.919 454.254 297.244 454.741 296.353C455.228 295.462 455.363 294.421 455.119 293.435Z" fill="#263238"/>
<path d="M420.81 339.455C420.81 339.455 426.16 344.225 428.9 338.055L430.33 339.165C430.33 339.165 430.19 343.755 427.59 345.285C428.23 347.835 439.1 384.855 441.04 403.515L438.04 411.085L430.15 404.845C430.15 404.845 426.31 372.845 425 345.635C423.457 345.125 422.046 344.28 420.867 343.162C419.689 342.043 418.771 340.679 418.18 339.165L420.81 339.455Z" fill="#2972FF"/>
<path opacity="0.2" d="M427.709 340.075L432.359 343.685L433.119 332.845L431.639 332.535L430.419 339.835L428.209 338.555L427.709 340.075Z" fill="black"/>
<path opacity="0.2" d="M405.35 333.275C405.27 333.275 416.28 346.725 416.28 346.725L420 343.905L422.57 341.725L423.23 340.905L408.66 330.785C407.991 331.501 407.272 332.169 406.51 332.785C406.109 332.913 405.721 333.077 405.35 333.275Z" fill="black"/>
<path d="M406.129 333.045L411.459 328.295L426.029 341.935L422.219 340.585L416.669 344.845L406.129 333.045Z" fill="#2972FF"/>
<path d="M425.999 341.905C425.679 341.285 426.309 329.135 426.309 329.135L432.309 332.425C432.029 332.365 431.849 342.665 431.679 342.665C431.509 342.665 428.259 339.145 428.259 339.145L425.999 341.905Z" fill="#2972FF"/>
<path opacity="0.2" d="M451.669 372.215L450.539 348.145L455.919 371.185L451.669 372.215Z" fill="black"/>
<path opacity="0.2" d="M404.999 375.725C405.669 375.595 409.109 374.465 409.109 374.465L401.469 353.195L411.999 376.725L405.689 379.235L404.999 375.725Z" fill="black"/>
<path opacity="0.5" d="M406.129 333.045L411.459 328.295L426.029 341.935L422.219 340.585L416.669 344.845L406.129 333.045Z" fill="white"/>
<path opacity="0.5" d="M425.999 341.905C425.679 341.285 426.309 329.135 426.309 329.135L432.309 332.425C432.029 332.365 431.849 342.665 431.679 342.665C431.509 342.665 428.259 339.145 428.259 339.145L425.999 341.905Z" fill="white"/>
<path opacity="0.3" d="M434.289 361.835L436.739 373.845L443.859 376.425L448.669 372.225L447.789 360.885L434.289 361.835Z" fill="white"/>
<path d="M426.89 340.905L424.64 341.455C424.64 341.455 424.55 341.605 424.64 341.515C424.73 341.425 423.41 345.785 423.41 345.785C423.77 346.105 424.98 348.195 425.12 348.165C425.26 348.135 428.26 347.855 428.26 347.855L429.34 344.685L426.89 340.905Z" fill="#2972FF"/>
<path opacity="0.2" d="M426.89 340.905L424.64 341.455C424.64 341.455 424.55 341.605 424.64 341.515C424.73 341.425 423.41 345.785 423.41 345.785C423.77 346.105 424.98 348.195 425.12 348.165C425.26 348.135 428.26 347.855 428.26 347.855L429.34 344.685L426.89 340.905Z" fill="black"/>
<path d="M402 358.085C402 358.085 407.35 393.685 410.44 397.015C415.66 402.635 441.53 417.565 441.53 417.565L454.45 413.035C454.891 412.886 455.363 412.848 455.823 412.923C456.283 412.998 456.718 413.184 457.09 413.465L465.92 420.205L465.08 420.915C464.897 421.067 464.673 421.162 464.437 421.189C464.201 421.216 463.962 421.173 463.75 421.065L462.38 420.385L463.92 421.895L463.43 422.295C463.186 422.495 462.899 422.635 462.591 422.702C462.284 422.77 461.964 422.764 461.66 422.685L457.71 421.625L461.35 424.055C460.938 424.396 460.45 424.631 459.927 424.741C459.405 424.851 458.863 424.832 458.35 424.685L452.57 423.035C448.624 423.939 444.61 424.514 440.57 424.755C433.77 425.175 401.66 413.955 395.67 405.755C389.68 397.555 383.52 363.425 383.52 363.425L402 358.085Z" fill="#EBB373"/>
<path d="M384.929 381.765C384.929 381.765 376.929 349.505 387.459 341.685C397.989 333.865 408.459 374.685 408.459 374.685L384.929 381.765Z" fill="#2972FF"/>
<path opacity="0.5" d="M384.929 381.765C384.929 381.765 376.929 349.505 387.459 341.685C397.989 333.865 408.459 374.685 408.459 374.685L384.929 381.765Z" fill="white"/>
<path d="M471.11 422.785H430.18C430.18 424.345 431.93 425.615 434.07 425.605H500.75C502.88 425.605 504.59 424.325 504.58 422.775L471.11 422.785Z" fill="#263238"/>
<path d="M501.36 425.455H464C463.721 425.478 463.444 425.392 463.228 425.214C463.012 425.037 462.873 424.783 462.84 424.505C462.841 424.409 462.861 424.314 462.9 424.225L479.54 386.085C479.816 385.508 480.256 385.025 480.806 384.697C481.356 384.37 481.991 384.213 482.63 384.245H520C520.136 384.226 520.275 384.234 520.407 384.271C520.54 384.307 520.663 384.371 520.77 384.457C520.877 384.543 520.965 384.651 521.029 384.773C521.092 384.894 521.13 385.028 521.14 385.165C521.142 385.273 521.118 385.379 521.07 385.475L504.44 423.615C504.161 424.188 503.721 424.667 503.174 424.994C502.627 425.321 501.996 425.481 501.36 425.455Z" fill="#263238"/>
<path opacity="0.7" d="M520 384.245H482.6C481.96 384.212 481.326 384.37 480.776 384.697C480.226 385.025 479.785 385.508 479.51 386.085L463.51 422.785H430.18C430.18 424.345 431.93 425.615 434.07 425.605H500.75C501.384 425.597 502.011 425.471 502.6 425.235C503.008 425.111 503.385 424.902 503.705 424.621C504.026 424.34 504.283 423.994 504.46 423.605L521.09 385.465C521.138 385.369 521.162 385.263 521.16 385.155C521.149 385.017 521.11 384.883 521.044 384.76C520.979 384.638 520.889 384.531 520.78 384.445C520.671 384.36 520.545 384.298 520.411 384.263C520.276 384.229 520.136 384.223 520 384.245Z" fill="white"/>
<path d="M497.539 404.545C496.739 406.375 495.099 407.635 493.879 407.375C492.659 407.115 492.329 405.455 493.109 403.625C493.889 401.795 495.559 400.555 496.779 400.815C497.999 401.075 498.359 402.675 497.539 404.545Z" fill="white"/>
<g opacity="0.3">
<path d="M479.51 386.085L463.51 422.785H465.24L482.61 384.245C481.969 384.21 481.332 384.367 480.78 384.694C480.228 385.022 479.786 385.506 479.51 386.085Z" fill="black"/>
</g>
<path d="M481.439 465.085L505.519 468.965L509.389 459.025L484.069 451.125L481.439 465.085Z" fill="#EBB373"/>
<path d="M516.229 473.975L519.489 467.245C519.22 466.857 519.053 466.406 519.004 465.936C518.956 465.466 519.026 464.991 519.209 464.555C519.877 463.707 520.686 462.98 521.599 462.405L530.679 443.975C530.078 443.665 529.44 443.433 528.779 443.285C528.072 443.205 527.357 443.205 526.649 443.285C524.429 443.585 522.649 445.285 521.439 446.635C519.359 448.855 512.159 454.345 512.159 454.345C510.566 455.216 508.763 455.627 506.949 455.535C506.271 455.461 505.585 455.545 504.944 455.781C504.304 456.017 503.727 456.399 503.259 456.895C502.259 458.415 502.769 459.795 504.169 460.765L505.809 461.885C505.99 462.719 505.854 463.589 505.43 464.328C505.005 465.067 504.32 465.622 503.509 465.885C503.509 465.885 499.779 468.345 501.619 469.005C502.669 469.375 507.419 470.875 511.129 472.165L513.539 473.005L516.229 473.975Z" fill="#263238"/>
<path d="M515.868 451.305C515.811 451.329 515.762 451.372 515.732 451.426C515.701 451.48 515.689 451.544 515.698 451.605C515.756 452.193 515.974 452.753 516.328 453.225C516.518 453.485 516.958 453.225 516.758 452.935C516.449 452.521 516.259 452.03 516.208 451.515C516.206 451.477 516.195 451.44 516.176 451.407C516.157 451.374 516.13 451.346 516.098 451.325C516.065 451.305 516.028 451.292 515.99 451.289C515.952 451.285 515.914 451.291 515.878 451.305H515.868Z" fill="#2972FF"/>
<path d="M514.399 452.355C514.345 452.381 514.3 452.423 514.27 452.474C514.239 452.526 514.225 452.585 514.229 452.645C514.288 453.232 514.506 453.792 514.859 454.265C515.049 454.525 515.489 454.265 515.299 453.985C514.987 453.571 514.794 453.081 514.739 452.565C514.737 452.527 514.726 452.49 514.707 452.457C514.688 452.424 514.661 452.396 514.628 452.375C514.596 452.355 514.559 452.342 514.521 452.339C514.483 452.335 514.445 452.341 514.409 452.355H514.399Z" fill="#2972FF"/>
<path d="M512.999 453.465C512.941 453.489 512.893 453.532 512.863 453.586C512.832 453.64 512.82 453.703 512.829 453.765C512.888 454.351 513.102 454.91 513.449 455.385C513.639 455.635 514.089 455.385 513.889 455.095C513.583 454.678 513.39 454.189 513.329 453.675C513.327 453.637 513.316 453.6 513.297 453.567C513.278 453.534 513.251 453.506 513.218 453.485C513.186 453.465 513.149 453.452 513.111 453.449C513.073 453.445 513.035 453.451 512.999 453.465Z" fill="#2972FF"/>
<path opacity="0.2" d="M519.209 464.555C519.876 463.707 520.685 462.98 521.599 462.405L530.679 443.975C530.077 443.665 529.439 443.433 528.779 443.285C528.446 443.251 528.113 443.234 527.779 443.235L513.139 472.905L513.539 473.045L516.229 473.985L519.489 467.255C519.218 466.866 519.05 466.413 519.001 465.941C518.952 465.469 519.024 464.992 519.209 464.555Z" fill="white"/>
<path d="M513.1 453.745C512.408 453.509 511.739 453.211 511.1 452.855C510.473 452.497 509.952 451.98 509.59 451.355C509.497 451.219 509.439 451.062 509.422 450.898C509.404 450.734 509.428 450.568 509.49 450.415C509.6 450.279 509.743 450.174 509.907 450.111C510.07 450.048 510.247 450.029 510.42 450.055C510.752 450.102 511.072 450.214 511.361 450.386C511.649 450.558 511.9 450.785 512.1 451.055C512.568 451.892 512.905 452.796 513.1 453.735" stroke="#2972FF" stroke-width="0.25" stroke-miterlimit="10"/>
<path d="M513.06 453.825C512.348 453.76 511.632 453.76 510.92 453.825C510.199 453.884 509.508 454.136 508.92 454.555C508.775 454.641 508.654 454.762 508.568 454.907C508.482 455.052 508.435 455.217 508.43 455.385C508.47 455.556 508.556 455.711 508.68 455.835C508.804 455.959 508.959 456.045 509.13 456.085C509.453 456.179 509.792 456.207 510.127 456.17C510.461 456.132 510.785 456.028 511.08 455.865C511.845 455.286 512.519 454.595 513.08 453.815" stroke="#2972FF" stroke-width="0.25" stroke-miterlimit="10"/>
<path d="M390.928 454.105C385.728 445.825 373.988 423.405 397.818 419.035C421.648 414.665 501.248 452.505 501.248 452.505L496.248 467.695L422.148 456.015C422.148 456.015 432.248 469.555 419.998 468.905C402.068 467.165 397.768 462.905 390.928 454.105Z" fill="#263238"/>
<path opacity="0.7" d="M423.869 456.425L403.539 450.025C403.539 450.025 420.539 460.465 426.849 461.705L423.869 456.425Z" fill="black"/>
</g>
<defs>
<filter id="filter0_df_1525_8126" x="24.3867" y="0" width="688.654" height="544.495" filterUnits="userSpaceOnUse" color-interpolation-filters="sRGB">
<feFlood flood-opacity="0" result="BackgroundImageFix"/>
<feColorMatrix in="SourceAlpha" type="matrix" values="0 0 0 0 0 0 0 0 0 0 0 0 0 0 0 0 0 0 127 0" result="hardAlpha"/>
<feOffset dy="14"/>
<feGaussianBlur stdDeviation="5.5"/>
<feComposite in2="hardAlpha" operator="out"/>
<feColorMatrix type="matrix" values="0 0 0 0 0 0 0 0 0 0 0 0 0 0 0 0 0 0 0.25 0"/>
<feBlend mode="normal" in2="BackgroundImageFix" result="effect1_dropShadow_1525_8126"/>
<feBlend mode="normal" in="SourceGraphic" in2="effect1_dropShadow_1525_8126" result="shape"/>
<feGaussianBlur stdDeviation="10" result="effect2_foregroundBlur_1525_8126"/>
</filter>
<clipPath id="clip0_1525_8126">
<rect width="750" height="441.15" fill="white" transform="translate(0 55.9053)"/>
</clipPath>
</defs>
</svg>
