<svg width="84" height="16" viewBox="0 0 84 16" fill="none" xmlns="http://www.w3.org/2000/svg">
<path fill-rule="evenodd" clip-rule="evenodd" d="M3.61939 14.4463C3.45787 14.5741 3.21489 14.7198 2.91326 14.7198C2.56313 14.7198 2.2793 14.4359 2.2793 14.0858C2.2793 13.7657 2.5166 13.501 2.82491 13.458C2.82732 13.4561 2.8299 13.4541 2.83267 13.452C2.88705 13.4089 2.97044 13.3243 3.07914 13.1805C3.29504 12.8949 3.54761 12.4611 3.81706 11.9068C4.3529 10.8045 4.91154 9.31759 5.34767 7.82228C5.4029 7.63291 5.45596 7.44414 5.50659 7.25669C5.27354 6.83106 5.06885 6.38675 4.89889 5.94532C4.51655 4.95231 4.28233 3.90217 4.34087 3.05854C4.37008 2.63753 4.47683 2.19965 4.74347 1.85365C5.03283 1.47818 5.45794 1.27979 5.95628 1.27979C6.25215 1.27979 6.52865 1.37243 6.75762 1.55934C6.97659 1.7381 7.11655 1.97358 7.20725 2.20801C7.38356 2.6637 7.4229 3.24415 7.39799 3.84203C7.35945 4.76702 7.15756 5.90162 6.86527 7.07005C7.05846 7.38034 7.26593 7.66783 7.48215 7.91941C8.05918 8.59085 8.59216 8.88733 8.9993 8.88733C9.40643 8.88733 9.93941 8.59085 10.5164 7.91941C10.7327 7.66783 10.9401 7.38035 11.1333 7.07006C10.841 5.90162 10.6391 4.76702 10.6006 3.84203C10.5757 3.24415 10.615 2.6637 10.7913 2.20801C10.882 1.97358 11.022 1.7381 11.241 1.55934C11.4699 1.37243 11.7464 1.27979 12.0423 1.27979C12.5406 1.27979 12.9658 1.47818 13.2551 1.85365C13.5218 2.19965 13.6285 2.63753 13.6577 3.05854C13.7163 3.90217 13.482 4.95231 13.0997 5.94532C12.9297 6.38674 12.7251 6.83106 12.492 7.25669C12.5426 7.44414 12.5957 7.63291 12.6509 7.82228C13.0871 9.31759 13.6457 10.8045 14.1815 11.9068C14.451 12.4611 14.7036 12.8949 14.9195 13.1805C15.0282 13.3243 15.1116 13.4089 15.1659 13.452C15.1687 13.4541 15.1713 13.4561 15.1737 13.458C15.482 13.501 15.7193 13.7657 15.7193 14.0858C15.7193 14.4359 15.4355 14.7198 15.0853 14.7198C14.7837 14.7198 14.5407 14.5741 14.3792 14.4463C14.2082 14.311 14.0509 14.1341 13.908 13.9451C13.6207 13.565 13.3265 13.0479 13.0412 12.4611C12.5242 11.3976 12 10.0284 11.571 8.6353C11.5403 8.67264 11.5093 8.70949 11.478 8.74582C10.8292 9.5008 9.97394 10.1553 8.9993 10.1553C8.02465 10.1553 7.16938 9.5008 6.52054 8.74582C6.48932 8.70949 6.45833 8.67264 6.42757 8.6353C5.99861 10.0284 5.47438 11.3976 4.95739 12.4611C4.67212 13.0479 4.3779 13.565 4.09058 13.9451C3.94768 14.1341 3.79037 14.311 3.61939 14.4463ZM12.0275 5.18584C12.3013 4.39284 12.4287 3.66362 12.3928 3.14631C12.3726 2.85412 12.3048 2.69766 12.2508 2.62762C12.2196 2.58705 12.1779 2.54771 12.0423 2.54771C12.0388 2.54775 12.0355 2.54926 12.0333 2.55199C12.0213 2.56703 11.999 2.60045 11.9739 2.66552C11.8926 2.87549 11.8448 3.24599 11.8674 3.78924C11.8846 4.20204 11.9403 4.67456 12.0275 5.18584ZM5.97114 5.18584C6.05832 4.67456 6.11397 4.20204 6.13117 3.78924C6.1538 3.24599 6.10598 2.87549 6.02474 2.66552C5.99957 2.60045 5.9773 2.56703 5.96526 2.55198C5.96308 2.54926 5.95977 2.54775 5.95628 2.54771C5.82065 2.54771 5.77903 2.58705 5.74777 2.62762C5.69379 2.69766 5.62603 2.85412 5.60575 3.14631C5.56986 3.66362 5.6973 4.39284 5.97114 5.18584Z" fill="url(#paint0_radial_1430_7511)"/>
<path fill-rule="evenodd" clip-rule="evenodd" d="M15.0886 13.3804C15.119 13.4116 15.1451 13.4351 15.1666 13.4522L15.1744 13.4582C15.1831 13.4594 15.1917 13.4608 15.2003 13.4624C15.2014 13.4626 15.2025 13.4628 15.2036 13.463C15.2497 13.4716 15.294 13.4852 15.3359 13.5032C15.5618 13.6002 15.72 13.8247 15.72 14.086C15.72 14.4362 15.4362 14.72 15.086 14.72C14.7844 14.72 14.5414 14.5743 14.3799 14.4465C14.2089 14.3112 14.0516 14.1344 13.9087 13.9453C13.6214 13.5653 13.3272 13.0482 13.0419 12.4613C12.5641 11.4784 12.0802 10.2345 11.6709 8.95192C11.665 8.93324 11.659 8.91456 11.6531 8.89586C11.6256 8.80922 11.5985 8.72242 11.5717 8.63552C11.541 8.67286 11.51 8.70971 11.4788 8.74604C11.4386 8.79273 11.3977 8.83904 11.356 8.88484C10.7237 9.57947 9.91436 10.1555 9 10.1555C8.08564 10.1555 7.27634 9.57947 6.64399 8.88484C6.6023 8.83904 6.56138 8.79273 6.52125 8.74604C6.49003 8.70971 6.45903 8.67286 6.42827 8.63552C6.40151 8.72242 6.37439 8.80922 6.34691 8.89586C6.34098 8.91456 6.33504 8.93324 6.32908 8.95192C5.91984 10.2345 5.43588 11.4784 4.95809 12.4613C4.67282 13.0482 4.3786 13.5653 4.09129 13.9453C3.94839 14.1344 3.79107 14.3112 3.6201 14.4465C3.45857 14.5743 3.2156 14.72 2.91396 14.72C2.56383 14.72 2.28 14.4362 2.28 14.086C2.28 13.8247 2.43818 13.6002 2.66404 13.5032C2.70517 13.4856 2.74854 13.4721 2.79361 13.4635C2.79601 13.463 2.7984 13.4626 2.80081 13.4621C2.80902 13.4607 2.81729 13.4593 2.82562 13.4582L2.83337 13.4522C2.8549 13.4351 2.88098 13.4116 2.91138 13.3804C2.95776 13.3328 3.01418 13.2676 3.07984 13.1807C3.29574 12.8951 3.54831 12.4613 3.81776 11.907C4.3536 10.8047 4.91224 9.31781 5.34838 7.82249C5.40361 7.63313 5.45666 7.44436 5.50729 7.2569C5.27425 6.83128 5.06956 6.38696 4.89959 5.94553C4.51725 4.95253 4.28304 3.90238 4.34157 3.05876C4.37079 2.63774 4.47753 2.19986 4.74417 1.85387C5.03353 1.47839 5.45865 1.28 5.95698 1.28C6.25285 1.28 6.52935 1.37264 6.75832 1.55955C6.9773 1.73831 7.11725 1.9738 7.20795 2.20822C7.38426 2.66392 7.42361 3.24437 7.3987 3.84224C7.36015 4.76723 7.15826 5.90184 6.86598 7.07027C7.05916 7.38056 7.26663 7.66804 7.48285 7.91963C8.05989 8.59106 8.59286 8.88755 9 8.88755C9.40714 8.88755 9.94011 8.59106 10.5172 7.91963C10.7334 7.66804 10.9408 7.38056 11.134 7.07027C10.8417 5.90184 10.6398 4.76723 10.6013 3.84224C10.5764 3.24437 10.6157 2.66392 10.7921 2.20822C10.8828 1.9738 11.0227 1.73831 11.2417 1.55955C11.4706 1.37264 11.7471 1.28 12.043 1.28C12.5414 1.28 12.9665 1.47839 13.2558 1.85387C13.5225 2.19986 13.6292 2.63774 13.6584 3.05876C13.717 3.90238 13.4828 4.95253 13.1004 5.94553C12.9304 6.38696 12.7258 6.83128 12.4927 7.2569C12.5433 7.44436 12.5964 7.63313 12.6516 7.82249C13.0878 9.31781 13.6464 10.8047 14.1822 11.907C14.4517 12.4613 14.7043 12.8951 14.9202 13.1807C14.9858 13.2676 15.0422 13.3328 15.0886 13.3804ZM12.7923 7.29149C12.8335 7.44169 12.8763 7.59268 12.9204 7.74409C13.3532 9.22784 13.9066 10.6994 14.4341 11.7846C14.7 12.3317 14.9434 12.7472 15.1435 13.0119C15.2127 13.1034 15.266 13.1624 15.3018 13.1978C15.7025 13.2949 16 13.6555 16 14.086C16 14.5908 15.5908 15 15.086 15C14.693 15 14.3891 14.8108 14.2062 14.6661C14.0095 14.5105 13.8358 14.3132 13.6854 14.1142C13.3823 13.7133 13.0789 13.1778 12.7901 12.5837C12.3245 11.6259 11.8553 10.4288 11.4536 9.1906C10.813 9.85959 9.97464 10.4355 9 10.4355C8.02536 10.4355 7.18703 9.85959 6.54642 9.1906C6.14468 10.4288 5.67553 11.6259 5.20991 12.5837C4.92114 13.1778 4.61772 13.7133 4.31465 14.1142C4.16416 14.3132 3.99053 14.5105 3.79383 14.6661C3.61094 14.8108 3.30698 15 2.91396 15C2.40919 15 2 14.5908 2 14.086C2 13.6555 2.29746 13.2949 2.69816 13.1978C2.73405 13.1624 2.78728 13.1034 2.85648 13.0119C3.0566 12.7472 3.29997 12.3317 3.56594 11.7846C4.09344 10.6994 4.64682 9.22784 5.07958 7.74409C5.12374 7.59268 5.16648 7.44168 5.20769 7.29149C4.99082 6.88532 4.79937 6.46449 4.63829 6.04614C4.24879 5.03454 3.99971 3.94059 4.06225 3.03938C4.09343 2.58999 4.20876 2.08992 4.52239 1.68295C4.86889 1.23333 5.3788 1 5.95698 1C6.31344 1 6.65346 1.11251 6.93539 1.34265L6.75832 1.55955L6.93539 1.34265C7.2029 1.56103 7.3668 1.84282 7.46909 2.10719C7.66637 2.61708 7.70387 3.24383 7.67845 3.8539C7.64011 4.7742 7.4456 5.88473 7.16652 7.02157C7.33496 7.28332 7.51258 7.52463 7.6952 7.73713C8.25604 8.38971 8.71788 8.60755 9 8.60755C9.28212 8.60755 9.74396 8.38971 10.3048 7.73713C10.4874 7.52463 10.665 7.28332 10.8335 7.02157C10.5544 5.88473 10.3599 4.7742 10.3215 3.8539C10.2961 3.24383 10.3336 2.61708 10.5309 2.10719C10.6332 1.84282 10.7971 1.56103 11.0646 1.34265C11.3465 1.11251 11.6866 1 12.043 1C12.6212 1 13.1311 1.23333 13.4776 1.68295C13.7912 2.08992 13.9066 2.58999 13.9378 3.03938C14.0003 3.94059 13.7512 5.03454 13.3617 6.04614C13.2006 6.46449 13.0092 6.88532 12.7923 7.29149ZM11.9746 2.66574C11.9997 2.60067 12.022 2.56724 12.034 2.5522C12.0362 2.54948 12.0395 2.54796 12.043 2.54792C12.1786 2.54792 12.2203 2.58727 12.2515 2.62783C12.3055 2.69788 12.3733 2.85433 12.3935 3.14653C12.4198 3.52433 12.3589 4.01517 12.2174 4.56134C12.1652 4.763 12.102 4.97221 12.0282 5.18605C11.9902 4.96363 11.9583 4.74855 11.9329 4.54252C11.8998 4.27496 11.8778 4.02268 11.8681 3.78946C11.8455 3.2462 11.8933 2.8757 11.9746 2.66574ZM6.06715 4.54252C6.10016 4.27496 6.12215 4.02268 6.13187 3.78946C6.15451 3.2462 6.10668 2.8757 6.02545 2.66574C6.00027 2.60066 5.978 2.56724 5.96597 2.5522C5.96379 2.54948 5.96047 2.54796 5.95698 2.54792C5.82135 2.54792 5.77973 2.58727 5.74847 2.62783C5.69449 2.69788 5.62673 2.85433 5.60646 3.14653C5.58024 3.52433 5.64115 4.01518 5.78258 4.56134C5.8348 4.763 5.898 4.97221 5.97185 5.18605C6.00977 4.96363 6.04172 4.74855 6.06715 4.54252Z" fill="white"/>
<path d="M24.9421 13.8403L22.1317 4.68263H22.0599C22.0705 4.90086 22.0865 5.23087 22.1078 5.67265C22.1344 6.10912 22.1583 6.57485 22.1796 7.06986C22.2009 7.56487 22.2116 8.01198 22.2116 8.41118V13.8403H20V2.16766H23.3693L26.1317 11.0938H26.1796L29.1098 2.16766H32.479V13.8403H30.1717V8.31537C30.1717 7.9481 30.177 7.52495 30.1876 7.04591C30.2036 6.56687 30.2222 6.11178 30.2435 5.68064C30.2648 5.24418 30.2808 4.91683 30.2914 4.6986H30.2196L27.2096 13.8403H24.9421Z" fill="url(#paint1_radial_1430_7511)"/>
<path d="M43.0614 13.8403L42.2151 11.0619H37.9596L37.1133 13.8403H34.4466L38.5664 2.11976H41.5923L45.7281 13.8403H43.0614ZM41.6243 8.98603L40.778 6.27146C40.7247 6.09049 40.6529 5.85895 40.5624 5.57685C40.4772 5.28942 40.3894 4.99933 40.2989 4.70659C40.2138 4.40852 40.1446 4.15037 40.0913 3.93214C40.0381 4.15037 39.9636 4.42182 39.8678 4.74651C39.7773 5.06587 39.6895 5.36926 39.6043 5.65669C39.5191 5.94411 39.4579 6.14904 39.4207 6.27146L38.5824 8.98603H41.6243Z" fill="url(#paint2_radial_1430_7511)"/>
<path d="M58.0509 13.8403H54.9052L49.8274 5.00998H49.7555C49.7768 5.37725 49.7954 5.74717 49.8114 6.11976C49.8274 6.49235 49.8434 6.86494 49.8593 7.23752C49.8753 7.60479 49.8913 7.97472 49.9072 8.34731V13.8403H47.6956V2.16766H50.8174L55.8873 10.9102H55.9432C55.9325 10.5482 55.9192 10.189 55.9032 9.83234C55.8873 9.47572 55.8713 9.1191 55.8553 8.76247C55.8447 8.40585 55.834 8.04923 55.8234 7.69261V2.16766H58.0509V13.8403Z" fill="url(#paint3_radial_1430_7511)"/>
<path d="M70.9886 2.16766V9.72056C70.9886 10.5243 70.8103 11.2508 70.4536 11.9002C70.1024 12.5442 69.5674 13.0552 68.8489 13.4331C68.1356 13.811 67.2361 14 66.1503 14C64.6067 14 63.4304 13.6061 62.6213 12.8184C61.8123 12.0306 61.4077 10.9874 61.4077 9.68862V2.16766H63.8748V9.31337C63.8748 10.2768 64.0717 10.9528 64.4656 11.3413C64.8595 11.7299 65.4423 11.9242 66.2141 11.9242C66.757 11.9242 67.1962 11.831 67.5315 11.6447C67.8721 11.4584 68.1223 11.171 68.282 10.7824C68.4417 10.3939 68.5215 9.89887 68.5215 9.29741V2.16766H70.9886Z" fill="url(#paint4_radial_1430_7511)"/>
<path d="M81.2276 10.5988C81.2276 11.2908 81.06 11.8922 80.7246 12.4032C80.3893 12.9142 79.8996 13.3081 79.2556 13.5848C78.6168 13.8616 77.8397 14 76.9242 14C76.5197 14 76.1232 13.9734 75.7346 13.9202C75.3514 13.8669 74.9814 13.7898 74.6248 13.6886C74.2735 13.5822 73.9382 13.4518 73.6188 13.2974V10.998C74.1724 11.2428 74.7473 11.4637 75.3434 11.6607C75.9395 11.8576 76.5304 11.9561 77.1158 11.9561C77.5204 11.9561 77.8451 11.9029 78.0899 11.7964C78.3401 11.69 78.521 11.5436 78.6328 11.3573C78.7446 11.171 78.8005 10.9581 78.8005 10.7186C78.8005 10.4258 78.702 10.1756 78.5051 9.96806C78.3081 9.76048 78.0367 9.5662 77.6907 9.38523C77.35 9.20426 76.9642 9.00998 76.533 8.8024C76.2616 8.67465 75.9661 8.52029 75.6468 8.33932C75.3274 8.15303 75.024 7.92681 74.7366 7.66068C74.4492 7.39454 74.2123 7.07252 74.026 6.69461C73.8451 6.31138 73.7546 5.85363 73.7546 5.32136C73.7546 4.62409 73.9143 4.02794 74.2336 3.53293C74.553 3.03792 75.0081 2.66001 75.5989 2.3992C76.195 2.13307 76.8976 2 77.7067 2C78.3135 2 78.891 2.07186 79.4392 2.21557C79.9928 2.35396 80.5703 2.55622 81.1717 2.82236L80.3733 4.74651C79.8357 4.52828 79.354 4.36061 78.9282 4.24351C78.5024 4.12109 78.0686 4.05988 77.6268 4.05988C77.3181 4.05988 77.0546 4.11045 76.8364 4.21158C76.6182 4.30739 76.4532 4.44578 76.3414 4.62675C76.2296 4.8024 76.1737 5.00732 76.1737 5.24152C76.1737 5.5183 76.2536 5.75249 76.4133 5.94411C76.5783 6.13041 76.8231 6.31138 77.1478 6.48703C77.4778 6.66267 77.8876 6.8676 78.3773 7.1018C78.9735 7.3839 79.4818 7.67931 79.9023 7.98802C80.3281 8.29142 80.6554 8.6507 80.8843 9.06587C81.1132 9.47572 81.2276 9.98669 81.2276 10.5988Z" fill="url(#paint5_radial_1430_7511)"/>
<defs>
<radialGradient id="paint0_radial_1430_7511" cx="0" cy="0" r="1" gradientUnits="userSpaceOnUse" gradientTransform="translate(0.990529 23.1198) rotate(-63.7693) scale(40.2666 42.8035)">
<stop offset="0.0441211" stop-color="#FFB800"/>
<stop offset="0.513373" stop-color="#00A911"/>
</radialGradient>
<radialGradient id="paint1_radial_1430_7511" cx="0" cy="0" r="1" gradientUnits="userSpaceOnUse" gradientTransform="translate(14.1289 21.5) rotate(-21.691) scale(87.2562 80.3448)">
<stop offset="0.0441211" stop-color="#FFE816"/>
<stop offset="0.513373" stop-color="#0FBB00"/>
</radialGradient>
<radialGradient id="paint2_radial_1430_7511" cx="0" cy="0" r="1" gradientUnits="userSpaceOnUse" gradientTransform="translate(14.1289 21.5) rotate(-21.691) scale(87.2562 80.3448)">
<stop offset="0.0441211" stop-color="#FFE816"/>
<stop offset="0.513373" stop-color="#0FBB00"/>
</radialGradient>
<radialGradient id="paint3_radial_1430_7511" cx="0" cy="0" r="1" gradientUnits="userSpaceOnUse" gradientTransform="translate(14.1289 21.5) rotate(-21.691) scale(87.2562 80.3448)">
<stop offset="0.0441211" stop-color="#FFE816"/>
<stop offset="0.513373" stop-color="#0FBB00"/>
</radialGradient>
<radialGradient id="paint4_radial_1430_7511" cx="0" cy="0" r="1" gradientUnits="userSpaceOnUse" gradientTransform="translate(14.1289 21.5) rotate(-21.691) scale(87.2562 80.3448)">
<stop offset="0.0441211" stop-color="#FFE816"/>
<stop offset="0.513373" stop-color="#0FBB00"/>
</radialGradient>
<radialGradient id="paint5_radial_1430_7511" cx="0" cy="0" r="1" gradientUnits="userSpaceOnUse" gradientTransform="translate(14.1289 21.5) rotate(-21.691) scale(87.2562 80.3448)">
<stop offset="0.0441211" stop-color="#FFE816"/>
<stop offset="0.513373" stop-color="#0FBB00"/>
</radialGradient>
</defs>
</svg>
