<svg width="274" height="49" viewBox="0 0 274 49" fill="none" xmlns="http://www.w3.org/2000/svg">
<path d="M19.1583 7.8216L26.6324 0.297882V4.62153C31.8139 4.676 36.7714 6.77153 40.4393 10.4637C44.1561 14.2051 46.2441 19.2796 46.2441 24.5707C46.2441 29.4906 44.4388 34.2231 41.1974 37.8709C40.9528 38.1461 40.7001 38.4152 40.4393 38.6777C36.7359 42.4057 31.7177 44.5059 26.4818 44.5209L26.4358 44.521C26.4323 44.521 26.4287 44.521 26.4252 44.521H0V37.8709L26.4252 37.8709C29.9294 37.8709 33.2901 36.4696 35.7679 33.9753C38.2458 31.4811 39.6378 28.0981 39.6378 24.5707C39.6378 21.0433 38.2458 17.6603 35.7679 15.1661C33.339 12.721 30.0617 11.3262 26.6324 11.2722V15.3453L23.0285 11.7175L19.1583 7.8216Z" fill="white"/>
<path d="M15.5145 7.91566C14.4054 8.6519 13.3647 9.50386 12.4111 10.4637C8.69436 14.2051 6.6063 19.2796 6.6063 24.5707C6.6063 28.3663 7.68081 32.0504 9.66026 35.2109L18.4976 35.2109C18.0003 34.8355 17.5272 34.423 17.0825 33.9753C14.6046 31.4811 13.2126 28.0981 13.2126 24.5707C13.2126 21.0433 14.6046 17.6603 17.0825 15.1661C18.0473 14.1949 19.1459 13.3894 20.3348 12.7678L15.5145 7.91566Z" fill="white"/>
<path d="M36.9955 44.5209H49.5471V48.5958L57.0213 41.072L49.5471 33.5483V37.8709H44.5897C43.9042 38.8195 43.1422 39.7187 42.3078 40.5587C40.7264 42.1506 38.9335 43.4806 36.9955 44.5209Z" fill="white"/>
<path d="M83.7264 44.7656L74.227 14.24H73.9841C74.0201 14.9674 74.0741 16.0675 74.146 17.5401C74.236 18.9949 74.317 20.5474 74.3889 22.1974C74.4609 23.8474 74.4969 25.3378 74.4969 26.6685V44.7656H67.0215V5.85676H78.41L87.7475 35.6106H87.9094L97.8136 5.85676H109.202V44.7656H101.403V26.3491C101.403 25.1249 101.421 23.7144 101.457 22.1176C101.511 20.5208 101.574 19.0038 101.646 17.5667C101.718 16.1118 101.772 15.0207 101.808 14.2932H101.565L91.3907 44.7656H83.7264Z" fill="white"/>
<path d="M144.972 44.7656L142.111 35.5041H127.727L124.866 44.7656H115.853L129.778 5.69708H140.006L153.985 44.7656H144.972ZM140.114 28.5846L137.253 19.5361C137.074 18.9328 136.831 18.161 136.525 17.2207C136.237 16.2626 135.94 15.2957 135.634 14.3198C135.346 13.3263 135.112 12.4658 134.933 11.7383C134.753 12.4658 134.501 13.3706 134.177 14.4529C133.871 15.5174 133.574 16.5288 133.286 17.4868C132.998 18.4449 132.792 19.128 132.666 19.5361L129.832 28.5846H140.114Z" fill="white"/>
<path d="M195.638 44.7656H185.005L167.842 15.3311H167.599C167.671 16.5554 167.734 17.7885 167.788 19.0304C167.842 20.2724 167.896 21.5143 167.949 22.7563C168.003 23.9805 168.057 25.2136 168.111 26.4556V44.7656H160.636V5.85676H171.188L188.325 34.9985H188.514C188.478 33.792 188.433 32.5944 188.379 31.4057C188.325 30.2169 188.271 29.0282 188.217 27.8395C188.181 26.6507 188.145 25.462 188.109 24.2733V5.85676H195.638V44.7656Z" fill="white"/>
<path d="M239.369 5.85676V31.0331C239.369 33.7122 238.766 36.134 237.561 38.2985C236.373 40.4454 234.565 42.1486 232.136 43.4083C229.726 44.668 226.685 45.2979 223.015 45.2979C217.797 45.2979 213.821 43.985 211.087 41.3591C208.352 38.7332 206.984 35.2557 206.984 30.9266V5.85676H215.323V29.6758C215.323 32.8871 215.989 35.1404 217.32 36.4356C218.652 37.7308 220.622 38.3784 223.231 38.3784C225.066 38.3784 226.55 38.0679 227.683 37.4469C228.835 36.8259 229.681 35.8679 230.22 34.5727C230.76 33.2775 231.03 31.6274 231.03 29.6226V5.85676H239.369Z" fill="white"/>
<path d="M273.978 33.9606C273.978 36.2671 273.411 38.2719 272.278 39.9752C271.144 41.6785 269.489 42.9914 267.312 43.914C265.153 44.8366 262.527 45.2979 259.432 45.2979C258.065 45.2979 256.724 45.2092 255.411 45.0317C254.116 44.8543 252.865 44.5971 251.66 44.26C250.472 43.9051 249.339 43.4704 248.259 42.9559V35.2912C250.131 36.1074 252.074 36.8437 254.089 37.5001C256.104 38.1566 258.101 38.4848 260.08 38.4848C261.447 38.4848 262.545 38.3074 263.372 37.9526C264.218 37.5977 264.829 37.1098 265.207 36.4888C265.585 35.8679 265.774 35.1582 265.774 34.3598C265.774 33.3839 265.441 32.55 264.775 31.8581C264.11 31.1661 263.192 30.5186 262.023 29.9153C260.871 29.3121 259.567 28.6645 258.11 27.9725C257.192 27.5467 256.194 27.0322 255.114 26.429C254.035 25.808 253.009 25.0539 252.038 24.1668C251.066 23.2797 250.265 22.2063 249.636 20.9466C249.024 19.6691 248.718 18.1433 248.718 16.3691C248.718 14.0448 249.258 12.0577 250.337 10.4077C251.417 8.75763 252.955 7.49793 254.952 6.62855C256.967 5.74144 259.342 5.29788 262.077 5.29788C264.128 5.29788 266.08 5.5374 267.933 6.01644C269.804 6.47774 271.756 7.15195 273.789 8.03907L271.09 14.4529C269.273 13.7255 267.645 13.1666 266.206 12.7763C264.766 12.3682 263.3 12.1641 261.807 12.1641C260.763 12.1641 259.873 12.3327 259.135 12.6698C258.398 12.9892 257.84 13.4505 257.462 14.0537C257.084 14.6392 256.895 15.3223 256.895 16.1029C256.895 17.0255 257.165 17.8062 257.705 18.4449C258.263 19.0659 259.09 19.6691 260.188 20.2546C261.303 20.8401 262.688 21.5232 264.344 22.3039C266.359 23.2442 268.077 24.2289 269.498 25.258C270.937 26.2693 272.044 27.4669 272.818 28.8508C273.591 30.2169 273.978 31.9202 273.978 33.9606Z" fill="white"/>
</svg>
