<svg width="274" height="49" viewBox="0 0 274 49" fill="none" xmlns="http://www.w3.org/2000/svg">
<path fill-rule="evenodd" clip-rule="evenodd" d="M19.1583 7.52372L26.6324 0V4.32364C31.8139 4.37812 36.7714 6.47365 40.4393 10.1659C44.1561 13.9073 46.2441 18.9817 46.2441 24.2728C46.2441 29.1927 44.4388 33.9253 41.1974 37.573C40.9528 37.8482 40.7001 38.1173 40.4393 38.3799C36.7359 42.1078 31.7177 44.208 26.4818 44.2231L26.4358 44.2231L26.4252 44.2231H0V37.5731L26.4252 37.573C29.9294 37.573 33.2901 36.1717 35.7679 33.6775C38.2458 31.1832 39.6378 27.8002 39.6378 24.2728C39.6378 20.7454 38.2458 17.3624 35.7679 14.8682C33.339 12.4231 30.0617 11.0284 26.6324 10.9743V15.0474L23.0285 11.4196L19.1583 7.52372ZM15.5145 7.61778C14.4054 8.35402 13.3647 9.20598 12.4111 10.1659C8.69436 13.9073 6.6063 18.9817 6.6063 24.2728C6.6063 28.0684 7.68081 31.7525 9.66026 34.913L18.4977 34.913C18.0003 34.5376 17.5272 34.1251 17.0825 33.6775C14.6046 31.1832 13.2126 27.8002 13.2126 24.2728C13.2126 20.7454 14.6046 17.3624 17.0825 14.8682C18.0473 13.897 19.1459 13.0915 20.3348 12.4699L15.5145 7.61778ZM49.5471 44.2231H36.9955C38.9335 43.1827 40.7264 41.8527 42.3078 40.2608C43.1422 39.4209 43.9042 38.5216 44.5897 37.573H49.5471V33.2504L57.0213 40.7742L49.5471 48.2979V44.2231ZM272.278 39.6773C273.411 37.9741 273.978 35.9692 273.978 33.6627C273.978 31.6223 273.591 29.9191 272.818 28.5529C272.044 27.169 270.938 25.9714 269.498 24.9601C268.077 23.931 266.359 22.9463 264.344 22.006C262.688 21.2253 261.303 20.5422 260.188 19.9568C259.09 19.3713 258.263 18.768 257.705 18.147C257.165 17.5083 256.895 16.7277 256.895 15.8051C256.895 15.0244 257.084 14.3413 257.462 13.7558C257.84 13.1526 258.398 12.6913 259.135 12.3719C259.873 12.0348 260.763 11.8663 261.807 11.8663C263.3 11.8663 264.766 12.0703 266.206 12.4784C267.645 12.8687 269.273 13.4276 271.09 14.155L273.789 7.74118C271.756 6.85407 269.804 6.17986 267.933 5.71856C266.08 5.23952 264.128 5 262.077 5C259.342 5 256.967 5.44356 254.952 6.33067C252.955 7.20004 251.417 8.45975 250.337 10.1098C249.258 11.7598 248.718 13.747 248.718 16.0712C248.718 17.8454 249.024 19.3713 249.636 20.6487C250.265 21.9084 251.066 22.9818 252.038 23.8689C253.009 24.756 254.035 25.5101 255.114 26.1311C256.194 26.7343 257.192 27.2488 258.11 27.6747C259.567 28.3666 260.871 29.0142 262.023 29.6174C263.192 30.2207 264.11 30.8683 264.775 31.5602C265.441 32.2522 265.774 33.0861 265.774 34.0619C265.774 34.8603 265.585 35.57 265.207 36.191C264.829 36.8119 264.218 37.2998 263.372 37.6547C262.545 38.0095 261.447 38.187 260.08 38.187C258.101 38.187 256.104 37.8587 254.089 37.2023C252.074 36.5458 250.131 35.8095 248.259 34.9933V42.658C249.339 43.1725 250.472 43.6072 251.66 43.9621C252.865 44.2992 254.116 44.5564 255.411 44.7339C256.724 44.9113 258.065 45 259.432 45C262.527 45 265.153 44.5387 267.312 43.6161C269.489 42.6935 271.144 41.3806 272.278 39.6773ZM144.972 44.4677L142.111 35.2063H127.727L124.866 44.4677H115.853L129.778 5.3992H140.006L153.985 44.4677H144.972ZM140.114 28.2868L137.253 19.2382C137.074 18.635 136.831 17.8632 136.525 16.9228C136.237 15.9647 135.94 14.9978 135.634 14.022C135.346 13.0284 135.112 12.1679 134.933 11.4405C134.753 12.1679 134.501 13.0727 134.177 14.155C133.871 15.2196 133.574 16.2309 133.286 17.189C132.998 18.147 132.792 18.8301 132.666 19.2382L129.832 28.2868H140.114ZM83.7264 44.4677L74.227 13.9421H73.9841C74.0201 14.6695 74.0741 15.7696 74.146 17.2422C74.236 18.6971 74.317 20.2495 74.3889 21.8995C74.4609 23.5496 74.4969 25.0399 74.4969 26.3706V44.4677H67.0215V5.55888H78.41L87.7475 35.3127H87.9094L97.8136 5.55888H109.202V44.4677H101.403V26.0512C101.403 24.827 101.421 23.4165 101.457 21.8197C101.511 20.2229 101.574 18.7059 101.646 17.2688L101.808 13.9953H101.565L91.3907 44.4677H83.7264ZM185.005 44.4677H195.638V5.55888H188.109V23.9754L188.217 27.5416L188.379 31.1078C188.433 32.2965 188.478 33.4941 188.514 34.7006H188.325L171.188 5.55888H160.636V44.4677H168.111V26.1577C168.057 24.9157 168.003 23.6826 167.949 22.4584L167.788 18.7325C167.734 17.4906 167.671 16.2575 167.599 15.0333H167.842L185.005 44.4677ZM239.369 5.55888V30.7352C239.369 33.4143 238.766 35.8361 237.561 38.0007C236.373 40.1475 234.565 41.8507 232.136 43.1104C229.726 44.3701 226.685 45 223.015 45C217.797 45 213.821 43.6871 211.087 41.0612C208.352 38.4354 206.984 34.9579 206.984 30.6287V5.55888H215.323V29.3779C215.323 32.5893 215.989 34.8425 217.32 36.1377C218.652 37.4329 220.622 38.0805 223.231 38.0805C225.066 38.0805 226.55 37.77 227.683 37.149C228.835 36.5281 229.681 35.57 230.22 34.2748C230.76 32.9796 231.03 31.3296 231.03 29.3247V5.55888H239.369Z" fill="url(#paint0_radial_1518_8453)"/>
<defs>
<radialGradient id="paint0_radial_1518_8453" cx="0" cy="0" r="1" gradientUnits="userSpaceOnUse" gradientTransform="translate(-26.2719 78.484) rotate(-19.6858) scale(385.322 327.676)">
<stop offset="0.0441211" stop-color="#FFE816"/>
<stop offset="0.513373" stop-color="#0FBB00"/>
</radialGradient>
</defs>
</svg>
