<svg width="276" height="48" viewBox="0 0 276 48" fill="none" xmlns="http://www.w3.org/2000/svg">
<path fill-rule="evenodd" clip-rule="evenodd" d="M0 44V4L14.4338 16.5V4L60.6218 44H0ZM21.4338 31.8223V19.3223L41.8462 37H7V19.3223L21.4338 31.8223ZM273.877 38.6773C275.011 36.9741 275.578 34.9692 275.578 32.6627C275.578 30.6223 275.191 28.9191 274.417 27.5529C273.644 26.169 272.537 24.9714 271.098 23.9601C269.676 22.931 267.958 21.9463 265.943 21.006C264.288 20.2253 262.903 19.5422 261.787 18.9568C260.69 18.3713 259.862 17.768 259.305 17.147C258.765 16.5083 258.495 15.7277 258.495 14.8051C258.495 14.0244 258.684 13.3413 259.062 12.7558C259.439 12.1526 259.997 11.6913 260.735 11.3719C261.472 11.0348 262.363 10.8663 263.406 10.8663C264.9 10.8663 266.366 11.0703 267.805 11.4784C269.245 11.8687 270.873 12.4276 272.69 13.155L275.389 6.74118C273.356 5.85407 271.404 5.17986 269.533 4.71856C267.679 4.23952 265.727 4 263.676 4C260.942 4 258.567 4.44356 256.552 5.33067C254.555 6.20004 253.017 7.45975 251.937 9.10978C250.858 10.7598 250.318 12.747 250.318 15.0712C250.318 16.8454 250.624 18.3713 251.235 19.6487C251.865 20.9084 252.666 21.9818 253.637 22.8689C254.609 23.756 255.634 24.5101 256.714 25.1311C257.793 25.7343 258.792 26.2488 259.709 26.6747C261.167 27.3666 262.471 28.0142 263.622 28.6174C264.792 29.2207 265.709 29.8683 266.375 30.5602C267.041 31.2522 267.374 32.0861 267.374 33.0619C267.374 33.8603 267.185 34.57 266.807 35.191C266.429 35.8119 265.817 36.2998 264.972 36.6547C264.144 37.0095 263.047 37.187 261.679 37.187C259.7 37.187 257.703 36.8587 255.688 36.2023C253.673 35.5458 251.73 34.8095 249.859 33.9933V41.658C250.939 42.1725 252.072 42.6072 253.259 42.9621C254.465 43.2992 255.715 43.5564 257.011 43.7339C258.324 43.9113 259.664 44 261.032 44C264.126 44 266.753 43.5387 268.912 42.6161C271.089 41.6935 272.744 40.3806 273.877 38.6773ZM146.571 43.4677L143.711 34.2063H129.327L126.466 43.4677H117.452L131.378 4.3992H141.606L155.585 43.4677H146.571ZM141.714 27.2868L138.853 18.2382C138.673 17.635 138.43 16.8632 138.124 15.9228C137.837 14.9647 137.54 13.9978 137.234 13.022C136.946 12.0284 136.712 11.1679 136.532 10.4405C136.352 11.1679 136.1 12.0727 135.777 13.155C135.471 14.2196 135.174 15.2309 134.886 16.189C134.598 17.147 134.391 17.8301 134.265 18.2382L131.432 27.2868H141.714ZM85.326 43.4677L75.8266 12.9421H75.5837C75.6197 13.6695 75.6737 14.7696 75.7457 16.2422C75.8356 17.6971 75.9166 19.2495 75.9885 20.8995C76.0605 22.5496 76.0965 24.0399 76.0965 25.3706V43.4677H68.6211V4.55888H80.0096L89.3471 34.3127H89.509L99.4132 4.55888H110.802V43.4677H103.002V25.0512C103.002 23.827 103.02 22.4165 103.056 20.8197C103.11 19.2229 103.173 17.7059 103.245 16.2688L103.407 12.9953H103.164L92.9903 43.4677H85.326ZM186.605 43.4677H197.238V4.55888H189.708V22.9754L189.816 26.5416L189.978 30.1078C190.032 31.2965 190.077 32.4941 190.113 33.7006H189.924L172.788 4.55888H162.236V43.4677H169.711V25.1577C169.657 23.9157 169.603 22.6826 169.549 21.4584L169.387 17.7325C169.333 16.4906 169.27 15.2575 169.198 14.0333H169.441L186.605 43.4677ZM240.968 4.55888V29.7352C240.968 32.4143 240.366 34.8361 239.16 37.0007C237.973 39.1475 236.165 40.8507 233.736 42.1104C231.325 43.3701 228.285 44 224.614 44C219.397 44 215.421 42.6871 212.686 40.0612C209.951 37.4353 208.584 33.9579 208.584 29.6287V4.55888H216.923V28.3779C216.923 31.5893 217.589 33.8425 218.92 35.1377C220.251 36.4329 222.222 37.0805 224.83 37.0805C226.665 37.0805 228.15 36.77 229.283 36.149C230.435 35.5281 231.28 34.57 231.82 33.2748C232.36 31.9796 232.629 30.3296 232.629 28.3247V4.55888H240.968Z" fill="url(#paint0_radial_1518_8449)"/>
<defs>
<radialGradient id="paint0_radial_1518_8449" cx="0" cy="0" r="1" gradientUnits="userSpaceOnUse" gradientTransform="translate(-26.4253 69) rotate(-16.4142) scale(380.425 276.478)">
<stop offset="0.0441211" stop-color="#FFE816"/>
<stop offset="0.513373" stop-color="#0FBB00"/>
</radialGradient>
</defs>
</svg>
