<svg width="58" height="50" viewBox="0 0 58 50" fill="none" xmlns="http://www.w3.org/2000/svg">
<path d="M19.1583 8.22885L26.6324 0.595764V4.98226C31.8139 5.03753 36.7714 7.16353 40.4393 10.9094C44.1561 14.7052 46.2441 19.8534 46.2441 25.2214C46.2441 30.2129 44.4388 35.0142 41.1974 38.715C40.9528 38.9942 40.7001 39.2672 40.4393 39.5336C36.7359 43.3157 31.7177 45.4465 26.4818 45.4617L26.4358 45.4617C26.4323 45.4617 26.4287 45.4617 26.4252 45.4617H0V38.715L26.4252 38.715C29.9294 38.715 33.2901 37.2933 35.7679 34.7628C38.2458 32.2323 39.6378 28.8002 39.6378 25.2214C39.6378 21.6427 38.2458 18.2106 35.7679 15.6801C33.339 13.1995 30.0617 11.7845 26.6324 11.7296V15.8619L23.0285 12.1814L19.1583 8.22885Z" fill="white"/>
<path d="M15.5145 8.32428C14.4054 9.07123 13.3647 9.93557 12.4111 10.9094C8.69436 14.7052 6.6063 19.8534 6.6063 25.2214C6.6063 29.0722 7.68081 32.8099 9.66026 36.0163L18.4976 36.0163C18.0003 35.6354 17.5272 35.217 17.0825 34.7628C14.6046 32.2323 13.2126 28.8002 13.2126 25.2214C13.2126 21.6427 14.6046 18.2106 17.0825 15.6801C18.0473 14.6948 19.1459 13.8776 20.3348 13.247L15.5145 8.32428Z" fill="white"/>
<path d="M36.9955 45.4617H49.5471V49.5958L57.0213 41.9627L49.5471 34.3296V38.715H44.5897C43.9042 39.6774 43.1422 40.5897 42.3078 41.4418C40.7264 43.0569 38.9335 44.4062 36.9955 45.4617Z" fill="white"/>
</svg>
