<svg width="207" height="48" viewBox="0 0 207 48" fill="none" xmlns="http://www.w3.org/2000/svg">
<path d="M16.7264 44.1935L7.227 13.8561H6.98412C7.0201 14.5791 7.07408 15.6723 7.14604 17.1358C7.236 18.5817 7.31696 20.1246 7.38892 21.7645C7.46089 23.4043 7.49687 24.8855 7.49687 26.208V44.1935H0.0214844V5.5246H11.41L20.7475 35.0949H20.9094L30.8136 5.5246H42.2021V44.1935H34.4029V25.8906C34.4029 24.6739 34.4209 23.2721 34.4568 21.6851C34.5108 20.0982 34.5738 18.5906 34.6458 17.1623C34.7177 15.7164 34.7717 14.632 34.8077 13.909H34.5648L24.3907 44.1935H16.7264Z" fill="white"/>
<path d="M77.9717 44.1935L75.1111 34.9891H60.727L57.8664 44.1935H48.8528L62.778 5.3659H73.0061L86.9853 44.1935H77.9717ZM73.114 28.1123L70.2534 19.1195C70.0735 18.52 69.8306 17.753 69.5248 16.8185C69.2369 15.8663 68.9401 14.9053 68.6342 13.9355C68.3464 12.948 68.1125 12.0928 67.9326 11.3699C67.7526 12.0928 67.5008 12.9921 67.1769 14.0677C66.8711 15.1257 66.5742 16.1308 66.2863 17.0829C65.9985 18.0351 65.7916 18.714 65.6656 19.1195L62.832 28.1123H73.114Z" fill="white"/>
<path d="M128.638 44.1935H118.005L100.842 14.9405H100.599C100.671 16.1572 100.734 17.3827 100.788 18.617C100.842 19.8513 100.896 21.0856 100.949 22.3199C101.003 23.5366 101.057 24.7621 101.111 25.9964V44.1935H93.636V5.5246H104.188L121.325 34.4866H121.514C121.478 33.2876 121.433 32.0973 121.379 30.9159C121.325 29.7345 121.271 28.5531 121.217 27.3717C121.181 26.1903 121.145 25.0089 121.109 23.8275V5.5246H128.638V44.1935Z" fill="white"/>
<path d="M172.369 5.5246V30.5456C172.369 33.2082 171.766 35.6151 170.561 37.7663C169.373 39.8999 167.565 41.5926 165.136 42.8446C162.726 44.0965 159.685 44.7225 156.015 44.7225C150.797 44.7225 146.821 43.4176 144.087 40.808C141.352 38.1983 139.984 34.7423 139.984 30.4398V5.5246H148.323V29.1967C148.323 32.3883 148.989 34.6276 150.32 35.9148C151.652 37.202 153.622 37.8456 156.231 37.8456C158.066 37.8456 159.55 37.5371 160.683 36.9199C161.835 36.3028 162.681 35.3506 163.22 34.0634C163.76 32.7762 164.03 31.1363 164.03 29.1438V5.5246H172.369Z" fill="white"/>
<path d="M206.978 33.4551C206.978 35.7473 206.411 37.7399 205.278 39.4326C204.144 41.1254 202.489 42.4302 200.312 43.3471C198.153 44.264 195.527 44.7225 192.432 44.7225C191.065 44.7225 189.724 44.6343 188.411 44.458C187.116 44.2816 185.865 44.026 184.66 43.6909C183.472 43.3383 182.339 42.9063 181.259 42.3949V34.7775C183.131 35.5886 185.074 36.3204 187.089 36.9728C189.104 37.6252 191.101 37.9514 193.08 37.9514C194.447 37.9514 195.545 37.7751 196.372 37.4225C197.218 37.0698 197.829 36.5849 198.207 35.9677C198.585 35.3506 198.774 34.6453 198.774 33.8518C198.774 32.882 198.441 32.0532 197.775 31.3656C197.11 30.6779 196.192 30.0343 195.023 29.4348C193.871 28.8353 192.567 28.1917 191.11 27.504C190.192 27.0808 189.194 26.5694 188.114 25.9699C187.035 25.3528 186.009 24.6034 185.038 23.7217C184.066 22.8401 183.265 21.7733 182.636 20.5214C182.024 19.2518 181.718 17.7354 181.718 15.9721C181.718 13.6622 182.258 11.6873 183.337 10.0474C184.417 8.40757 185.955 7.15564 187.952 6.29163C189.967 5.40998 192.342 4.96916 195.077 4.96916C197.128 4.96916 199.08 5.20721 200.933 5.68329C202.804 6.14175 204.756 6.8118 206.789 7.69344L204.09 14.0677C202.273 13.3448 200.645 12.7893 199.206 12.4014C197.766 11.9959 196.3 11.7931 194.807 11.7931C193.763 11.7931 192.873 11.9606 192.135 12.2956C191.398 12.613 190.84 13.0715 190.462 13.671C190.084 14.2529 189.895 14.9317 189.895 15.7076C189.895 16.6245 190.165 17.4003 190.705 18.0351C191.263 18.6523 192.09 19.2518 193.188 19.8337C194.303 20.4156 195.688 21.0944 197.344 21.8703C199.359 22.8048 201.077 23.7834 202.498 24.8061C203.937 25.8112 205.044 27.0014 205.818 28.3768C206.591 29.7345 206.978 31.4273 206.978 33.4551Z" fill="white"/>
</svg>
