<svg width="209" height="48" viewBox="0 0 209 48" fill="none" xmlns="http://www.w3.org/2000/svg">
<path d="M18.326 43.4677L8.82661 12.9421H8.58373C8.61971 13.6695 8.67369 14.7696 8.74565 16.2422C8.83561 17.697 8.91657 19.2495 8.98853 20.8995C9.0605 22.5496 9.09648 24.0399 9.09648 25.3706V43.4677H1.62109V4.55888H13.0096L22.3471 34.3127H22.509L32.4132 4.55888H43.8017V43.4677H36.0025V25.0512C36.0025 23.827 36.0205 22.4165 36.0565 20.8197C36.1104 19.2229 36.1734 17.7059 36.2454 16.2688C36.3173 14.8139 36.3713 13.7228 36.4073 12.9953H36.1644L25.9903 43.4677H18.326Z" fill="url(#paint0_radial_1518_8582)"/>
<path d="M79.5713 43.4677L76.7107 34.2063H62.3266L59.466 43.4677H50.4524L64.3777 4.3992H74.6057L88.585 43.4677H79.5713ZM74.7137 27.2868L71.853 18.2382C71.6731 17.635 71.4302 16.8632 71.1244 15.9228C70.8365 14.9647 70.5397 13.9978 70.2338 13.022C69.946 12.0284 69.7121 11.1679 69.5322 10.4405C69.3523 11.1679 69.1004 12.0727 68.7765 13.155C68.4707 14.2196 68.1738 15.2309 67.886 16.189C67.5981 17.147 67.3912 17.8301 67.2653 18.2382L64.4316 27.2868H74.7137Z" fill="url(#paint1_radial_1518_8582)"/>
<path d="M130.238 43.4677H119.605L102.441 14.0333H102.198C102.27 15.2575 102.333 16.4906 102.387 17.7325C102.441 18.9745 102.495 20.2165 102.549 21.4584C102.603 22.6826 102.657 23.9157 102.711 25.1577V43.4677H95.2356V4.55888H105.788L122.924 33.7006H123.113C123.077 32.4941 123.032 31.2965 122.978 30.1078C122.924 28.9191 122.87 27.7303 122.816 26.5416C122.78 25.3528 122.744 24.1641 122.708 22.9754V4.55888H130.238V43.4677Z" fill="url(#paint2_radial_1518_8582)"/>
<path d="M173.968 4.55888V29.7352C173.968 32.4143 173.366 34.8361 172.16 37.0007C170.973 39.1475 169.165 40.8507 166.736 42.1104C164.325 43.3701 161.285 44 157.614 44C152.397 44 148.421 42.6871 145.686 40.0612C142.951 37.4353 141.584 33.9579 141.584 29.6287V4.55888H149.923V28.3779C149.923 31.5893 150.589 33.8425 151.92 35.1377C153.251 36.4329 155.222 37.0805 157.83 37.0805C159.665 37.0805 161.15 36.77 162.283 36.149C163.435 35.5281 164.28 34.57 164.82 33.2748C165.36 31.9796 165.629 30.3296 165.629 28.3247V4.55888H173.968Z" fill="url(#paint3_radial_1518_8582)"/>
<path d="M208.578 32.6627C208.578 34.9692 208.011 36.9741 206.877 38.6773C205.744 40.3806 204.089 41.6935 201.912 42.6161C199.753 43.5387 197.126 44 194.032 44C192.664 44 191.324 43.9113 190.011 43.7339C188.715 43.5564 187.465 43.2992 186.259 42.9621C185.072 42.6072 183.939 42.1725 182.859 41.658V33.9933C184.73 34.8095 186.673 35.5458 188.688 36.2023C190.703 36.8587 192.7 37.187 194.679 37.187C196.047 37.187 197.144 37.0095 197.972 36.6547C198.817 36.2998 199.429 35.8119 199.807 35.191C200.185 34.57 200.374 33.8603 200.374 33.0619C200.374 32.0861 200.041 31.2522 199.375 30.5602C198.709 29.8683 197.792 29.2207 196.622 28.6174C195.471 28.0142 194.167 27.3666 192.709 26.6747C191.792 26.2488 190.793 25.7343 189.714 25.1311C188.634 24.5101 187.609 23.756 186.637 22.8689C185.666 21.9818 184.865 20.9084 184.235 19.6487C183.624 18.3713 183.318 16.8454 183.318 15.0712C183.318 12.747 183.858 10.7598 184.937 9.10978C186.017 7.45975 187.555 6.20004 189.552 5.33067C191.567 4.44356 193.942 4 196.676 4C198.727 4 200.679 4.23952 202.533 4.71856C204.404 5.17986 206.356 5.85407 208.389 6.74118L205.69 13.155C203.873 12.4276 202.245 11.8687 200.805 11.4784C199.366 11.0703 197.9 10.8663 196.407 10.8663C195.363 10.8663 194.472 11.0348 193.735 11.3719C192.997 11.6913 192.439 12.1526 192.062 12.7558C191.684 13.3413 191.495 14.0244 191.495 14.8051C191.495 15.7277 191.765 16.5083 192.304 17.147C192.862 17.768 193.69 18.3713 194.787 18.9568C195.903 19.5422 197.288 20.2253 198.943 21.006C200.958 21.9463 202.676 22.931 204.098 23.9601C205.537 24.9714 206.644 26.169 207.417 27.5529C208.191 28.9191 208.578 30.6223 208.578 32.6627Z" fill="url(#paint4_radial_1518_8582)"/>
<defs>
<radialGradient id="paint0_radial_1518_8582" cx="0" cy="0" r="1" gradientUnits="userSpaceOnUse" gradientTransform="translate(-18.2241 69) rotate(-21.4182) scale(294.382 268.32)">
<stop offset="0.0441211" stop-color="#FFE816"/>
<stop offset="0.513373" stop-color="#0FBB00"/>
</radialGradient>
<radialGradient id="paint1_radial_1518_8582" cx="0" cy="0" r="1" gradientUnits="userSpaceOnUse" gradientTransform="translate(-18.2241 69) rotate(-21.4182) scale(294.382 268.32)">
<stop offset="0.0441211" stop-color="#FFE816"/>
<stop offset="0.513373" stop-color="#0FBB00"/>
</radialGradient>
<radialGradient id="paint2_radial_1518_8582" cx="0" cy="0" r="1" gradientUnits="userSpaceOnUse" gradientTransform="translate(-18.2241 69) rotate(-21.4182) scale(294.382 268.32)">
<stop offset="0.0441211" stop-color="#FFE816"/>
<stop offset="0.513373" stop-color="#0FBB00"/>
</radialGradient>
<radialGradient id="paint3_radial_1518_8582" cx="0" cy="0" r="1" gradientUnits="userSpaceOnUse" gradientTransform="translate(-18.2241 69) rotate(-21.4182) scale(294.382 268.32)">
<stop offset="0.0441211" stop-color="#FFE816"/>
<stop offset="0.513373" stop-color="#0FBB00"/>
</radialGradient>
<radialGradient id="paint4_radial_1518_8582" cx="0" cy="0" r="1" gradientUnits="userSpaceOnUse" gradientTransform="translate(-18.2241 69) rotate(-21.4182) scale(294.382 268.32)">
<stop offset="0.0441211" stop-color="#FFE816"/>
<stop offset="0.513373" stop-color="#0FBB00"/>
</radialGradient>
</defs>
</svg>
