<svg width="50" height="49" viewBox="0 0 50 49" fill="none" xmlns="http://www.w3.org/2000/svg">
<path fill-rule="evenodd" clip-rule="evenodd" d="M49.0151 25.0568C49.0151 23.3195 48.8592 21.649 48.5697 20.0454H25.4951V29.5225H38.6806C38.1126 32.585 36.3865 35.1797 33.7917 36.917V43.0643H41.7097C46.3424 38.7991 49.0151 32.5181 49.0151 25.0568Z" fill="#4285F4"/>
<path fill-rule="evenodd" clip-rule="evenodd" d="M25.4957 48.9998C32.1107 48.9998 37.6566 46.8059 41.7102 43.0641L33.7923 36.9168C31.5984 38.3868 28.792 39.2555 25.4957 39.2555C19.1145 39.2555 13.7134 34.9457 11.7868 29.1548H3.60156V35.5025C7.63293 43.5096 15.9184 48.9998 25.4957 48.9998Z" fill="#34A853"/>
<path fill-rule="evenodd" clip-rule="evenodd" d="M11.7863 29.1548C11.2963 27.6848 11.0178 26.1146 11.0178 24.4998C11.0178 22.885 11.2963 21.3148 11.7863 19.8448V13.4971H3.60103C1.94171 16.8046 0.995117 20.5464 0.995117 24.4998C0.995117 28.4532 1.94171 32.195 3.60103 35.5025L11.7863 29.1548Z" fill="#FBBC05"/>
<path fill-rule="evenodd" clip-rule="evenodd" d="M25.4957 9.74432C29.0927 9.74432 32.3223 10.9805 34.8613 13.4082L41.8884 6.38114C37.6454 2.42773 32.0995 0 25.4957 0C15.9184 0 7.63293 5.49023 3.60156 13.4973L11.7868 19.845C13.7134 14.0541 19.1145 9.74432 25.4957 9.74432Z" fill="#EA4335"/>
</svg>
